<svg width="49" height="54" viewBox="0 0 49 54" fill="none" xmlns="http://www.w3.org/2000/svg">
<path fill-rule="evenodd" clip-rule="evenodd" d="M33.2675 5.26904C40.4039 8.2881 45.7057 14.7863 47.0359 22.6459L44.1171 24.9213C43.4614 16.7465 37.8696 9.97095 30.3171 7.56958L33.2675 5.26904ZM4.41927 27.7638C4.91731 35.9764 10.402 42.8402 17.8788 45.3803L14.96 47.6493C7.8866 44.5294 2.673 37.9555 1.46259 30.0644L4.41927 27.7638Z" fill="#DA0883"/>
<path fill-rule="evenodd" clip-rule="evenodd" d="M47.0359 22.646C47.2503 23.9129 47.3637 25.2112 47.3637 26.5348C47.3637 39.2792 37.0311 49.6158 24.2776 49.6158C20.9616 49.6158 17.8095 48.9162 14.96 47.6556L17.8788 45.3803C19.8899 46.061 22.0396 46.4329 24.2776 46.4329C35.2659 46.4329 44.1801 37.527 44.1801 26.5348C44.1801 25.9928 44.1549 25.4571 44.1171 24.9213L47.0359 22.646Z" fill="#FFDD00"/>
<path fill-rule="evenodd" clip-rule="evenodd" d="M24.2776 3.4541C27.4676 3.4541 30.5062 4.10329 33.2675 5.26932L30.3171 7.56985C28.4132 6.96478 26.3833 6.63703 24.2776 6.63703C13.2894 6.63703 4.37517 15.5429 4.37517 26.5351C4.37517 26.9448 4.38778 27.3544 4.41299 27.7641L1.46261 30.0647C1.28609 28.9112 1.19153 27.7326 1.19153 26.5351C1.19783 13.7844 11.5305 3.4541 24.2776 3.4541Z" fill="#00B1EB"/>
<path fill-rule="evenodd" clip-rule="evenodd" d="M21.5667 14.3516L10.0867 23.352C13.9134 23.352 17.7401 23.352 21.5667 23.352V42.5063L33.8096 32.9575V14.3516C28.7221 14.3516 26.6543 14.3516 21.5667 14.3516Z" fill="black"/>
</svg>
