<?xml version="1.0" encoding="UTF-8"?>
<!DOCTYPE svg PUBLIC "-//W3C//DTD SVG 1.1//EN" "http://www.w3.org/Graphics/SVG/1.1/DTD/svg11.dtd">
<!-- Creator: CorelDRAW 2018 (64-Bit) -->
<svg xmlns="http://www.w3.org/2000/svg" xml:space="preserve" width="77.638mm" height="8.2933mm" version="1.1" style="shape-rendering:geometricPrecision; text-rendering:geometricPrecision; image-rendering:optimizeQuality; fill-rule:evenodd; clip-rule:evenodd"
viewBox="0 0 8806.44 940.71"
 xmlns:xlink="http://www.w3.org/1999/xlink">
 <defs>
  <style type="text/css">
   <![CDATA[
    .fil2 {fill:#00B1EB}
    .fil0 {fill:#ED70A7}
    .fil1 {fill:#FFDD00}
    .fil3 {fill:#666666;fill-rule:nonzero}
   ]]>
  </style>
 </defs>
 <g id="Слой_x0020_1">
  <metadata id="CorelCorpID_0Corel-Layer"/>
  <g id="_1612584709856">
   <g>
    <polygon class="fil0" points="26.29,828.77 476.46,828.77 476.46,940.71 26.29,940.71 "/>
    <polygon class="fil1" points="120.5,498.49 408.57,498.49 408.57,610.41 120.5,610.41 120.5,573.1 120.5,530.29 "/>
    <polygon class="fil2" points="120.5,658.74 408.57,658.74 408.57,770.66 102.74,770.66 120.5,733.36 120.5,690.55 "/>
    <polygon class="fil0" points="107.03,329.06 408.57,329.06 408.57,440.99 120.5,440.99 120.5,403.68 120.5,360.88 "/>
    <polygon class="fil2" points="70.34,159.03 408.57,159.03 408.57,270.95 -0,270.95 "/>
    <polygon class="fil1" points="411.62,0 411.62,110.71 96.64,110.71 173.09,0 "/>
   </g>
   <path class="fil3" d="M1263.48 778.24l-78.83 0 0 -509 -218.49 0 0 509 -79.36 0 0 -569.02 376.68 0 0 569.02zm253.57 8.01c-50.29,0 -90.44,-17.48 -120.72,-52.29 -30.14,-34.95 -45.35,-79.63 -45.35,-134.05l0 -61.63c0,-55.22 14.81,-100.84 44.42,-136.72 29.48,-35.89 67.09,-53.89 112.71,-53.89 47.88,0 84.83,16.28 110.57,48.96 25.75,32.68 38.68,76.55 38.68,131.65l0 54.68 -227.41 0 0 16.81c0,36.55 8,66.7 24,90.57 16.02,23.88 38.82,35.88 68.16,35.88 22.02,0 40.69,-3.47 56.3,-10.4 15.74,-6.94 30.55,-16.95 44.56,-30.29l25.07 49.22c-13.34,15.07 -31.2,27.48 -53.62,37.09 -22.41,9.6 -48.15,14.41 -77.36,14.41zm-8.94 -378.55c-22.95,0 -41.36,11.2 -55.09,33.47 -13.87,22.41 -21.47,50.69 -23.07,84.97l148.85 0 0 -16.14c0,-30.01 -6,-54.56 -18,-73.63 -11.88,-19.08 -29.48,-28.67 -52.69,-28.67zm532.34 194.2c0,55.76 -12.27,100.31 -36.82,133.93 -24.4,33.61 -58.42,50.42 -101.91,50.42 -20.67,0 -38.68,-4 -54.41,-12.15 -15.61,-8 -28.95,-19.87 -40.15,-35.48l0 202.09 -79.37 0 0 -585.04 70.7 0 5.06 48.29c11.21,-18 24.94,-31.87 41.08,-41.62 16.14,-9.73 34.95,-14.67 56.3,-14.67 44.01,0 78.3,18.53 102.7,55.49 24.55,36.94 36.82,85.9 36.82,146.86l0 51.88zm-79.37 -51.88c0,-41.48 -6.79,-75.23 -20.54,-101.51 -13.6,-26.15 -34.01,-39.21 -61.08,-39.21 -16.95,0 -31.49,4.8 -43.49,14.41 -11.88,9.73 -21.61,22.81 -28.81,39.47l0 213.83c6.93,15.87 16.54,28.01 28.41,36.55 12,8.41 26.8,12.67 44.15,12.67 27.47,0 47.75,-11.34 61.23,-34.15 13.46,-22.8 20.13,-52.81 20.13,-90.17l0 -51.88zm160.59 228.22l0 -422.57 144.59 0c46.95,0 83.5,9.74 109.78,29.08 26.28,19.48 39.48,48.29 39.48,86.57 0,20.41 -5.6,38.41 -16.95,54.29 -11.33,16 -27.47,27.74 -48.28,35.62 26.01,6 46.01,17.87 60.02,35.74 13.87,17.74 20.81,38.55 20.81,62.16 0,39.35 -12.41,68.95 -37.08,89.1 -24.82,20.01 -59.77,30.01 -105.12,30.01l-167.26 0zm78.97 -185.67l0 125.65 88.29 0c20.81,0 36.55,-5.33 47.22,-16.14 10.67,-10.66 16,-26.41 16,-47.08 0,-19.6 -5.2,-34.95 -15.73,-45.88 -10.54,-11.07 -26.42,-16.54 -47.49,-16.54l-88.29 0zm0 -56.02l70.69 0c21.61,-0.26 37.89,-5.47 48.82,-15.47 10.93,-10.14 16.4,-24.81 16.4,-44.15 0,-20.68 -5.86,-36.01 -17.6,-46.15 -11.6,-10 -29.21,-15.07 -52.69,-15.07l-65.62 0 0 120.85zm390.82 -38.42l78.96 0c44.95,0 80.43,12.94 106.05,38.82 25.61,26.01 38.54,59.49 38.54,100.71 0,41.35 -12.93,75.09 -38.54,101.37 -25.61,26.15 -61.09,39.21 -106.05,39.21l-157.93 0 0 -422.57 78.97 0 0 142.46zm363.73 280.11l-79.23 0 0 -422.57 79.23 0 0 422.57zm-363.73 -220.09l0 160.06 78.96 0c22.14,0 38.55,-7.46 49.22,-22.4 10.67,-14.94 16,-34.02 16,-57.09 0,-22.28 -5.33,-41.22 -16,-56.95 -10.66,-15.74 -27.08,-23.62 -49.22,-23.62l-78.96 0zm688.54 -202.48l78.96 0 0 422.57 -78.96 0 0 -286.51 -2.4 -0.4 -139.12 286.91 -79.23 0 0 -422.57 79.23 0 0 286.25 2.4 0.26 139.12 -286.51zm37.34 -173.8l0.67 2.27c1.07,30.81 -8.41,55.75 -28.28,74.83 -19.87,19.07 -46.81,28.67 -80.69,28.67 -34.15,0 -61.09,-9.61 -81.1,-28.67 -19.87,-19.08 -29.21,-44.02 -27.88,-74.83l0.67 -2.27 59.1 0c0,17.07 3.99,31.22 11.86,42.15 8.01,10.93 20.41,16.4 37.35,16.4 16.14,0 28.14,-5.47 36.15,-16.4 8,-10.93 11.86,-25.08 11.86,-42.15l60.29 0zm609.04 596.37l-79.37 0 0 -362.54 -141.12 0 0 362.54 -79.23 0 0 -422.57 299.71 0 0 422.57zm244.91 8.01c-50.29,0 -90.44,-17.48 -120.72,-52.29 -30.14,-34.95 -45.35,-79.63 -45.35,-134.05l0 -61.63c0,-55.22 14.81,-100.84 44.42,-136.72 29.48,-35.89 67.09,-53.89 112.71,-53.89 47.88,0 84.83,16.28 110.57,48.96 25.75,32.68 38.68,76.55 38.68,131.65l0 54.68 -227.41 0 0 16.81c0,36.55 8,66.7 24,90.57 16.02,23.88 38.82,35.88 68.16,35.88 22.02,0 40.69,-3.47 56.3,-10.4 15.74,-6.94 30.55,-16.95 44.56,-30.29l25.07 49.22c-13.34,15.07 -31.2,27.48 -53.62,37.09 -22.41,9.6 -48.15,14.41 -77.36,14.41zm-8.94 -378.55c-22.95,0 -41.36,11.2 -55.09,33.47 -13.87,22.41 -21.47,50.69 -23.07,84.97l148.85 0 0 -16.14c0,-30.01 -6,-54.56 -18,-73.63 -11.88,-19.08 -29.48,-28.67 -52.69,-28.67zm504.99 370.54l-78.96 0 0 -153.39c-10.93,3.33 -22.01,5.86 -33.08,7.6 -11.07,1.74 -21.74,2.53 -32.28,2.53 -48.96,0 -86.43,-12.93 -112.71,-38.68 -26.15,-25.74 -39.21,-66.15 -39.21,-121.24l0 -119.38 78.96 0 0 119.66c0,36.41 5.74,62.15 17.34,77.09 11.6,15.07 30.15,22.55 55.63,22.55 11.21,0 22.14,-0.94 32.94,-2.94 10.67,-2 21.48,-4.8 32.42,-8.41l0 -207.95 78.96 0 0 422.57zm307.86 0c-2.8,-9.73 -5.21,-19.2 -7.08,-28.41 -1.72,-9.34 -2.93,-18.67 -3.46,-28.01 -11.74,18.94 -26.42,34.54 -44.16,46.42 -17.74,12 -37.34,18.01 -58.95,18.01 -35.75,0 -63.62,-11.21 -83.9,-33.76 -20.13,-22.54 -30.27,-52.68 -30.27,-90.43 0,-40.29 13.74,-71.9 41.21,-94.97 27.48,-23.07 66.16,-34.55 115.91,-34.55l58.96 0 0 -43.22c0,-25.61 -5.74,-45.61 -17.21,-60.02 -11.47,-14.41 -27.74,-21.61 -48.82,-21.61 -18.94,0 -34.28,6.53 -45.88,19.46 -11.6,12.94 -17.34,29.08 -17.34,48.56l-75.5 -0.4 -1.19 -2.27c-1.2,-32.68 11.73,-61.76 39.08,-87.24 27.35,-25.48 62.69,-38.15 105.91,-38.15 41.75,0 75.5,12.27 101.37,36.94 26.01,24.55 38.95,59.63 38.95,105.24l0 196.21c0,16.41 0.93,32.15 2.93,47.49 2.01,15.2 5.21,30.14 9.61,44.68l-80.16 0zm-95.77 -52.02c18.53,0 35.34,-5.47 50.68,-16.41 15.21,-10.93 26.41,-24.67 33.35,-41.07l0 -86.57 -60.16 0c-24.27,0 -43.08,7.74 -56.42,23.34 -13.46,15.47 -20.13,34.41 -20.13,56.95 0,18.94 4.53,34.41 13.6,46.15 9.2,11.73 22.14,17.6 39.09,17.6zm529.14 -310.52l-117.25 0 0 362.54 -79.63 0 0 -362.54 -114.97 0 0 -60.03 311.85 0 0 60.03zm361.87 362.54l-79.37 0 0 -180.87 -140.72 0 0 180.87 -79.23 0 0 -422.57 79.23 0 0 181.68 140.72 0 0 -181.68 79.37 0 0 422.57zm176.61 -280.11l78.96 0c44.95,0 80.43,12.94 106.05,38.82 25.61,26.01 38.54,59.49 38.54,100.71 0,41.35 -12.93,75.09 -38.54,101.37 -25.61,26.15 -61.09,39.21 -106.05,39.21l-157.93 0 0 -422.57 78.97 0 0 142.46zm363.73 280.11l-79.23 0 0 -422.57 79.23 0 0 422.57zm-363.73 -220.09l0 160.06 78.96 0c22.14,0 38.55,-7.46 49.22,-22.4 10.67,-14.94 16,-34.02 16,-57.09 0,-22.28 -5.33,-41.22 -16,-56.95 -10.66,-15.74 -27.08,-23.62 -49.22,-23.62l-78.96 0zm688.54 -202.48l78.96 0 0 422.57 -78.96 0 0 -286.51 -2.4 -0.4 -139.12 286.91 -79.23 0 0 -422.57 79.23 0 0 286.25 2.4 0.26 139.12 -286.51zm37.34 -173.8l0.67 2.27c1.07,30.81 -8.41,55.75 -28.28,74.83 -19.87,19.07 -46.81,28.67 -80.69,28.67 -34.15,0 -61.09,-9.61 -81.1,-28.67 -19.87,-19.08 -29.21,-44.02 -27.88,-74.83l0.67 -2.27 59.1 0c0,17.07 3.99,31.22 11.86,42.15 8.01,10.93 20.41,16.4 37.35,16.4 16.14,0 28.14,-5.47 36.15,-16.4 8,-10.93 11.86,-25.08 11.86,-42.15l60.29 0zm309.32 173.8l79.23 0 0 362.54 141.12 0 0 -362.54 79.37 0 0 362.54 48.42 0 -5.88 185.67 -73.09 0 0 -125.65 -269.17 0 0 -422.57zm564.63 430.58c-50.29,0 -90.44,-17.48 -120.72,-52.29 -30.14,-34.95 -45.35,-79.63 -45.35,-134.05l0 -61.63c0,-55.22 14.81,-100.84 44.42,-136.72 29.48,-35.89 67.09,-53.89 112.71,-53.89 47.88,0 84.83,16.28 110.57,48.96 25.75,32.68 38.68,76.55 38.68,131.65l0 54.68 -227.41 0 0 16.81c0,36.55 8,66.7 24,90.57 16.02,23.88 38.82,35.88 68.16,35.88 22.02,0 40.69,-3.47 56.3,-10.4 15.74,-6.94 30.55,-16.95 44.56,-30.29l25.07 49.22c-13.34,15.07 -31.2,27.48 -53.62,37.09 -22.41,9.6 -48.15,14.41 -77.36,14.41zm-8.94 -378.55c-22.95,0 -41.36,11.2 -55.09,33.47 -13.87,22.41 -21.47,50.69 -23.07,84.97l148.85 0 0 -16.14c0,-30.01 -6,-54.56 -18,-73.63 -11.88,-19.08 -29.48,-28.67 -52.69,-28.67zm520.2 370.54l-79.37 0 0 -180.87 -140.72 0 0 180.87 -79.23 0 0 -422.57 79.23 0 0 181.68 140.72 0 0 -181.68 79.37 0 0 422.57zm374.28 -362.54l-117.25 0 0 362.54 -79.63 0 0 -362.54 -114.97 0 0 -60.03 311.85 0 0 60.03zm374.01 186.21c0,55.76 -12.27,100.31 -36.82,133.93 -24.4,33.61 -58.42,50.42 -101.91,50.42 -20.67,0 -38.68,-4 -54.41,-12.15 -15.61,-8 -28.95,-19.87 -40.15,-35.48l0 202.09 -79.37 0 0 -585.04 70.7 0 5.06 48.29c11.21,-18 24.94,-31.87 41.08,-41.62 16.14,-9.73 34.95,-14.67 56.3,-14.67 44.01,0 78.3,18.53 102.7,55.49 24.55,36.94 36.82,85.9 36.82,146.86l0 51.88zm-79.37 -51.88c0,-41.48 -6.79,-75.23 -20.54,-101.51 -13.6,-26.15 -34.01,-39.21 -61.08,-39.21 -16.95,0 -31.49,4.8 -43.49,14.41 -11.88,9.73 -21.61,22.81 -28.81,39.47l0 213.83c6.93,15.87 16.54,28.01 28.41,36.55 12,8.41 26.8,12.67 44.15,12.67 27.47,0 47.75,-11.34 61.23,-34.15 13.46,-22.8 20.13,-52.81 20.13,-90.17l0 -51.88z"/>
  </g>
 </g>
</svg>
