<?xml version="1.0" encoding="UTF-8"?>
<!DOCTYPE svg PUBLIC "-//W3C//DTD SVG 1.1//EN" "http://www.w3.org/Graphics/SVG/1.1/DTD/svg11.dtd">
<!-- Creator: CorelDRAW 2018 (64-Bit) -->
<svg xmlns="http://www.w3.org/2000/svg" xml:space="preserve" width="72.0254mm" height="14.3437mm" version="1.1" style="shape-rendering:geometricPrecision; text-rendering:geometricPrecision; image-rendering:optimizeQuality; fill-rule:evenodd; clip-rule:evenodd"
viewBox="0 0 6865.34 1367.22"
 xmlns:xlink="http://www.w3.org/1999/xlink">
 <defs>
  <style type="text/css">
   <![CDATA[
    .fil2 {fill:#00B1EB}
    .fil0 {fill:#ED70A7}
    .fil1 {fill:#FFDD00}
    .fil3 {fill:#FEFEFE;fill-rule:nonzero}
    .fil4 {fill:#CCCCCC;fill-rule:nonzero}
   ]]>
  </style>
 </defs>
 <g id="Слой_x0020_1">
  <metadata id="CorelCorpID_0Corel-Layer"/>
  <g id="_2088167828096">
   <g>
    <polygon class="fil0" points="38.22,1204.53 692.49,1204.53 692.49,1367.22 38.22,1367.22 "/>
    <polygon class="fil1" points="175.12,724.5 593.81,724.5 593.81,887.18 175.12,887.18 175.12,832.95 175.12,770.73 "/>
    <polygon class="fil2" points="175.12,957.41 593.81,957.41 593.81,1120.09 149.34,1120.09 175.12,1065.86 175.12,1003.64 "/>
    <polygon class="fil0" points="155.56,478.26 593.81,478.26 593.81,640.94 175.12,640.94 175.12,586.71 175.12,524.49 "/>
    <polygon class="fil2" points="102.22,231.13 593.81,231.13 593.81,393.8 -0,393.8 "/>
    <polygon class="fil1" points="598.27,0 598.27,160.91 140.45,160.91 251.57,0 "/>
   </g>
   <path class="fil3" d="M1330.21 799.78l-56.42 0 0 -364.27 -156.36 0 0 364.27 -56.79 0 0 -407.22 269.57 0 0 407.22zm181.47 5.73c-35.99,0 -64.72,-12.51 -86.4,-37.42 -21.56,-25.01 -32.45,-56.98 -32.45,-95.93l0 -44.1c0,-39.52 10.6,-72.17 31.79,-97.84 21.09,-25.69 48.01,-38.57 80.66,-38.57 34.27,0 60.72,11.65 79.13,35.03 18.43,23.39 27.68,54.79 27.68,94.22l0 39.13 -162.75 0 0 12.03c0,26.16 5.72,47.74 17.18,64.83 11.46,17.08 27.78,25.67 48.77,25.67 15.76,0 29.12,-2.48 40.29,-7.44 11.27,-4.97 21.86,-12.12 31.88,-21.67l17.94 35.22c-9.54,10.79 -22.33,19.66 -38.37,26.55 -16.04,6.86 -34.47,10.3 -55.37,10.3zm-6.4 -270.9c-16.42,0 -29.6,8.01 -39.42,23.95 -9.93,16.04 -15.37,36.28 -16.51,60.8l106.53 0 0 -11.54c0,-21.48 -4.3,-39.05 -12.89,-52.69 -8.5,-13.66 -21.09,-20.52 -37.71,-20.52zm380.97 138.98c0,39.9 -8.78,71.78 -26.35,95.84 -17.46,24.05 -41.81,36.08 -72.93,36.08 -14.79,0 -27.68,-2.86 -38.94,-8.69 -11.17,-5.72 -20.72,-14.22 -28.74,-25.39l0 144.63 -56.8 0 0 -418.69 50.59 0 3.62 34.56c8.02,-12.89 17.85,-22.81 29.41,-29.79 11.54,-6.97 25,-10.49 40.28,-10.49 31.5,0 56.04,13.26 73.5,39.71 17.57,26.44 26.35,61.47 26.35,105.1l0 37.14zm-56.8 -37.14c0,-29.68 -4.86,-53.84 -14.7,-72.64 -9.73,-18.71 -24.33,-28.06 -43.71,-28.06 -12.12,0 -22.53,3.43 -31.12,10.3 -8.5,6.97 -15.46,16.33 -20.62,28.25l0 153.02c4.96,11.36 11.83,20.05 20.33,26.16 8.59,6.01 19.19,9.06 31.6,9.06 19.65,0 34.17,-8.11 43.82,-24.44 9.64,-16.32 14.4,-37.79 14.4,-64.52l0 -37.14zm114.93 163.33l0 -302.42 103.48 0c33.6,0 59.76,6.98 78.56,20.82 18.81,13.94 28.25,34.55 28.25,61.95 0,14.61 -4,27.49 -12.12,38.85 -8.11,11.46 -19.66,19.86 -34.55,25.5 18.62,4.29 32.93,12.78 42.95,25.57 9.93,12.7 14.9,27.59 14.9,44.49 0,28.16 -8.87,49.35 -26.54,63.77 -17.76,14.32 -42.77,21.48 -75.23,21.48l-119.7 0zm56.51 -132.87l0 89.91 63.19 0c14.9,0 26.16,-3.81 33.8,-11.55 7.63,-7.63 11.45,-18.89 11.45,-33.7 0,-14.02 -3.72,-25.01 -11.26,-32.84 -7.54,-7.92 -18.91,-11.83 -33.99,-11.83l-63.19 0zm0 -40.1l50.59 0c15.47,-0.18 27.12,-3.91 34.94,-11.07 7.83,-7.26 11.73,-17.76 11.73,-31.6 0,-14.79 -4.19,-25.77 -12.59,-33.03 -8.31,-7.16 -20.9,-10.79 -37.71,-10.79l-46.96 0 0 86.48zm279.69 -27.49l56.5 0c32.17,0 57.56,9.26 75.89,27.78 18.33,18.62 27.59,42.58 27.59,72.08 0,29.59 -9.26,53.74 -27.59,72.55 -18.33,18.71 -43.72,28.06 -75.89,28.06l-113.02 0 0 -302.42 56.51 0 0 101.95zm260.3 200.46l-56.7 0 0 -302.42 56.7 0 0 302.42zm-260.3 -157.5l0 114.54 56.5 0c15.85,0 27.59,-5.34 35.23,-16.03 7.63,-10.69 11.45,-24.34 11.45,-40.85 0,-15.95 -3.81,-29.5 -11.45,-40.76 -7.63,-11.27 -19.38,-16.9 -35.23,-16.9l-56.5 0zm492.76 -144.91l56.5 0 0 302.42 -56.5 0 0 -205.04 -1.72 -0.29 -99.57 205.33 -56.7 0 0 -302.42 56.7 0 0 204.86 1.73 0.19 99.56 -205.05zm26.73 -124.38l0.48 1.63c0.76,22.05 -6.01,39.9 -20.24,53.55 -14.22,13.65 -33.5,20.52 -57.75,20.52 -24.44,0 -43.72,-6.87 -58.04,-20.52 -14.22,-13.65 -20.9,-31.5 -19.95,-53.55l0.48 -1.63 42.29 0c0,12.22 2.86,22.34 8.49,30.17 5.73,7.83 14.6,11.74 26.73,11.74 11.55,0 20.14,-3.92 25.87,-11.74 5.73,-7.83 8.49,-17.95 8.49,-30.17l43.15 0zm497.05 426.8l-56.42 0 0 -364.27 -156.36 0 0 364.27 -56.79 0 0 -407.22 269.57 0 0 407.22zm181.47 5.73c-35.99,0 -64.72,-12.51 -86.4,-37.42 -21.56,-25.01 -32.45,-56.98 -32.45,-95.93l0 -44.1c0,-39.52 10.6,-72.17 31.79,-97.84 21.09,-25.69 48.01,-38.57 80.66,-38.57 34.27,0 60.72,11.65 79.13,35.03 18.43,23.39 27.68,54.79 27.68,94.22l0 39.13 -162.75 0 0 12.03c0,26.16 5.72,47.74 17.18,64.83 11.46,17.08 27.78,25.67 48.77,25.67 15.76,0 29.12,-2.48 40.29,-7.44 11.27,-4.97 21.86,-12.12 31.88,-21.67l17.94 35.22c-9.54,10.79 -22.33,19.66 -38.37,26.55 -16.04,6.86 -34.47,10.3 -55.37,10.3zm-6.4 -270.9c-16.42,0 -29.6,8.01 -39.42,23.95 -9.93,16.04 -15.37,36.28 -16.51,60.8l106.53 0 0 -11.54c0,-21.48 -4.3,-39.05 -12.89,-52.69 -8.5,-13.66 -21.09,-20.52 -37.71,-20.52zm361.4 265.18l-56.5 0 0 -109.78c-7.83,2.39 -15.75,4.2 -23.68,5.44 -7.92,1.24 -15.56,1.81 -23.1,1.81 -35.04,0 -61.86,-9.26 -80.67,-27.68 -18.71,-18.43 -28.06,-47.34 -28.06,-86.77l0 -85.44 56.5 0 0 85.63c0,26.06 4.11,44.48 12.41,55.17 8.31,10.79 21.58,16.14 39.81,16.14 8.02,0 15.84,-0.68 23.57,-2.11 7.63,-1.43 15.37,-3.43 23.2,-6.01l0 -148.82 56.5 0 0 302.42zm220.32 0c-2,-6.97 -3.73,-13.74 -5.06,-20.33 -1.24,-6.68 -2.1,-13.36 -2.48,-20.05 -8.4,13.55 -18.9,24.72 -31.6,33.22 -12.7,8.59 -26.73,12.89 -42.19,12.89 -25.59,0 -45.53,-8.02 -60.05,-24.15 -14.4,-16.13 -21.67,-37.7 -21.67,-64.71 0,-28.83 9.84,-51.46 29.49,-67.97 19.67,-16.51 47.35,-24.73 82.96,-24.73l42.2 0 0 -30.93c0,-18.33 -4.11,-32.64 -12.32,-42.95 -8.21,-10.31 -19.85,-15.46 -34.93,-15.46 -13.56,0 -24.53,4.67 -32.84,13.93 -8.31,9.26 -12.42,20.82 -12.42,34.75l-54.03 -0.29 -0.85 -1.62c-0.87,-23.39 8.39,-44.2 27.96,-62.43 19.58,-18.23 44.87,-27.3 75.8,-27.3 29.88,0 54.04,8.78 72.55,26.44 18.62,17.57 27.88,42.67 27.88,75.31l0 140.42c0,11.74 0.67,23 2.09,33.98 1.44,10.89 3.73,21.57 6.88,31.98l-57.37 0zm-68.53 -37.23c13.27,0 25.3,-3.91 36.27,-11.74 10.89,-7.83 18.9,-17.65 23.87,-29.4l0 -61.95 -43.06 0c-17.38,0 -30.84,5.53 -40.38,16.7 -9.64,11.08 -14.41,24.63 -14.41,40.76 0,13.56 3.24,24.63 9.73,33.04 6.59,8.39 15.85,12.59 27.98,12.59zm378.68 -222.23l-83.91 0 0 259.46 -56.99 0 0 -259.46 -82.28 0 0 -42.96 223.18 0 0 42.96zm258.98 259.46l-56.8 0 0 -129.44 -100.71 0 0 129.44 -56.7 0 0 -302.42 56.7 0 0 130.02 100.71 0 0 -130.02 56.8 0 0 302.42zm126.39 -200.46l56.5 0c32.17,0 57.56,9.26 75.89,27.78 18.33,18.62 27.59,42.58 27.59,72.08 0,29.59 -9.26,53.74 -27.59,72.55 -18.33,18.71 -43.72,28.06 -75.89,28.06l-113.03 0 0 -302.42 56.52 0 0 101.95zm260.3 200.46l-56.7 0 0 -302.42 56.7 0 0 302.42zm-260.3 -157.5l0 114.54 56.5 0c15.84,0 27.59,-5.34 35.22,-16.03 7.63,-10.69 11.46,-24.34 11.46,-40.85 0,-15.95 -3.82,-29.5 -11.46,-40.76 -7.63,-11.27 -19.38,-16.9 -35.22,-16.9l-56.5 0zm492.75 -144.91l56.51 0 0 302.42 -56.51 0 0 -205.04 -1.72 -0.29 -99.56 205.33 -56.7 0 0 -302.42 56.7 0 0 204.86 1.72 0.19 99.56 -205.05zm26.73 -124.38l0.48 1.63c0.76,22.05 -6.01,39.9 -20.24,53.55 -14.22,13.65 -33.5,20.52 -57.74,20.52 -24.45,0 -43.72,-6.87 -58.05,-20.52 -14.22,-13.65 -20.89,-31.5 -19.95,-53.55l0.48 -1.63 42.29 0c0,12.22 2.86,22.34 8.49,30.17 5.73,7.83 14.6,11.74 26.74,11.74 11.55,0 20.14,-3.92 25.87,-11.74 5.72,-7.83 8.49,-17.95 8.49,-30.17l43.14 0zm225.86 19.58l56.7 0 0 364.26 155.79 0 0 -364.26 56.79 0 0 363.7 40.86 0 -4.49 141.46 -51.74 0 0 -97.94 -253.92 0 0 -407.22zm469.18 412.95c-35.99,0 -64.72,-12.51 -86.4,-37.42 -21.57,-25.01 -32.46,-56.98 -32.46,-95.93l0 -44.1c0,-39.52 10.6,-72.17 31.79,-97.84 21.1,-25.69 48.02,-38.57 80.67,-38.57 34.27,0 60.71,11.65 79.13,35.03 18.43,23.39 27.68,54.79 27.68,94.22l0 39.13 -162.76 0 0 12.03c0,26.16 5.73,47.74 17.18,64.83 11.47,17.08 27.79,25.67 48.78,25.67 15.76,0 29.12,-2.48 40.29,-7.44 11.27,-4.97 21.86,-12.12 31.88,-21.67l17.94 35.22c-9.55,10.79 -22.33,19.66 -38.38,26.55 -16.04,6.86 -34.46,10.3 -55.36,10.3zm-6.4 -270.9c-16.42,0 -29.6,8.01 -39.42,23.95 -9.93,16.04 -15.37,36.28 -16.52,60.8l106.53 0 0 -11.54c0,-21.48 -4.29,-39.05 -12.88,-52.69 -8.5,-13.66 -21.1,-20.52 -37.71,-20.52zm372.28 265.18l-56.8 0 0 -129.44 -100.7 0 0 129.44 -56.7 0 0 -302.42 56.7 0 0 130.02 100.7 0 0 -130.02 56.8 0 0 302.42zm267.85 -259.46l-83.91 0 0 259.46 -56.99 0 0 -259.46 -82.28 0 0 -42.96 223.18 0 0 42.96zm267.66 133.26c0,39.9 -8.78,71.78 -26.35,95.84 -17.46,24.05 -41.81,36.08 -72.93,36.08 -14.79,0 -27.68,-2.86 -38.95,-8.69 -11.16,-5.72 -20.71,-14.22 -28.73,-25.39l0 144.63 -56.8 0 0 -418.69 50.59 0 3.62 34.56c8.02,-12.89 17.84,-22.81 29.4,-29.79 11.55,-6.97 25.01,-10.49 40.29,-10.49 31.49,0 56.04,13.26 73.5,39.71 17.57,26.44 26.35,61.47 26.35,105.1l0 37.14zm-56.8 -37.14c0,-29.68 -4.86,-53.84 -14.7,-72.64 -9.73,-18.71 -24.33,-28.06 -43.71,-28.06 -12.12,0 -22.53,3.43 -31.12,10.3 -8.5,6.97 -15.47,16.33 -20.62,28.25l0 153.02c4.96,11.36 11.83,20.05 20.33,26.16 8.59,6.01 19.18,9.06 31.59,9.06 19.66,0 34.18,-8.11 43.83,-24.44 9.63,-16.32 14.4,-37.79 14.4,-64.52l0 -37.14z"/>
   <path class="fil4" d="M1244.38 1304.67l-38.8 0 0 -182.39 -95.17 0 0 182.39 -38.8 0 0 -213.06 172.77 0 0 213.06zm144.99 4.03c-29.65,0 -53.26,-9.88 -70.81,-29.65 -17.56,-19.7 -26.3,-45.4 -26.3,-76.87l0 -8.67c0,-30.33 9.02,-55.55 27.1,-75.72 18.02,-20.11 39.41,-30.2 64.16,-30.2 28.72,0 50.44,8.67 65.17,25.96 14.73,17.36 22.06,40.42 22.06,69.27l0 24.21 -138.27 0 -0.6 1.01c0.4,20.38 5.58,37.13 15.54,50.31 10.02,13.12 24,19.7 41.96,19.7 13.18,0 24.69,-1.89 34.64,-5.65 9.88,-3.7 18.43,-8.87 25.69,-15.46l15.14 25.28c-7.61,7.61 -17.62,13.86 -30.13,18.9 -12.45,5.04 -27.58,7.6 -45.33,7.6zm-5.85 -190.46c-13.04,0 -24.14,5.45 -33.35,16.28 -9.15,10.89 -14.79,24.48 -16.95,40.82l0.4 1.01 98.32 0 0 -5.04c0,-15.14 -4.03,-27.71 -12.17,-37.86 -8.2,-10.16 -20.24,-15.2 -36.25,-15.2zm297.33 186.42l-38.87 0 0 -76.13c-7.47,1.95 -15.14,3.43 -23,4.44 -7.94,1.01 -16.35,1.48 -25.22,1.48 -25.76,0 -45.93,-6.8 -60.59,-20.31 -14.66,-13.58 -21.99,-33.62 -21.99,-60.18l0 -62.75 38.8 0 0 62.81c0,17.08 3.7,29.65 11.03,37.73 7.4,8 18.29,12.04 32.75,12.04 8.67,0 16.95,-0.48 24.81,-1.48 7.87,-1.01 15.67,-2.5 23.41,-4.44l0 -106.26 38.87 0 0 213.06zm187.29 0c-1.28,-6.45 -2.29,-12.11 -3.02,-17.01 -0.74,-4.98 -1.14,-9.88 -1.28,-14.93 -7.26,10.28 -16.68,18.83 -28.32,25.69 -11.56,6.85 -24.13,10.28 -37.53,10.28 -22.19,0 -39.07,-5.71 -50.7,-17.08 -11.64,-11.36 -17.42,-27.03 -17.42,-47.01 0,-20.37 8.21,-36.32 24.69,-47.81 16.47,-11.5 38.87,-17.21 67.11,-17.21l42.17 0 0 -20.99c0,-12.37 -3.83,-22.19 -11.44,-29.45 -7.6,-7.26 -18.43,-10.89 -32.34,-10.89 -12.45,0 -22.6,3.16 -30.4,9.48 -7.81,6.32 -11.77,13.92 -11.77,22.73l-36.99 0 -0.4 -1.14c-0.81,-15.47 6.52,-29.66 21.92,-42.5 15.47,-12.85 35.37,-19.24 59.86,-19.24 24.13,0 43.57,6.12 58.31,18.43 14.73,12.24 22.06,30 22.06,53.06l0 102.63c0,7.66 0.4,14.99 1.14,22.06 0.8,7.13 2.29,14.05 4.37,20.91l-40.01 0zm-64.43 -28.65c14.06,0 26.77,-3.63 38.07,-10.83 11.3,-7.2 18.63,-15.46 22.06,-24.74l0 -34.64 -43.58 0c-15.6,0 -28.11,3.91 -37.53,11.77 -9.35,7.87 -14.06,17.15 -14.06,27.78 0,9.42 2.96,16.88 8.88,22.4 5.84,5.51 14.59,8.26 26.16,8.26zm316.42 -153.74l-70.34 0 0 182.39 -38.8 0 0 -182.39 -69.33 0 0 -30.66 178.48 0 0 30.66zm170.01 182.39c-1.28,-6.45 -2.29,-12.11 -3.02,-17.01 -0.74,-4.98 -1.14,-9.88 -1.28,-14.93 -7.26,10.28 -16.68,18.83 -28.32,25.69 -11.56,6.85 -24.13,10.28 -37.53,10.28 -22.19,0 -39.07,-5.71 -50.7,-17.08 -11.64,-11.36 -17.42,-27.03 -17.42,-47.01 0,-20.37 8.21,-36.32 24.69,-47.81 16.47,-11.5 38.87,-17.21 67.11,-17.21l42.17 0 0 -20.99c0,-12.37 -3.83,-22.19 -11.44,-29.45 -7.6,-7.26 -18.43,-10.89 -32.34,-10.89 -12.45,0 -22.6,3.16 -30.4,9.48 -7.81,6.32 -11.77,13.92 -11.77,22.73l-36.99 0 -0.4 -1.14c-0.81,-15.47 6.52,-29.66 21.92,-42.5 15.47,-12.85 35.37,-19.24 59.86,-19.24 24.13,0 43.57,6.12 58.31,18.43 14.73,12.24 22.06,30 22.06,53.06l0 102.63c0,7.66 0.4,14.99 1.14,22.06 0.8,7.13 2.29,14.05 4.37,20.91l-40.01 0zm-64.43 -28.65c14.06,0 26.77,-3.63 38.07,-10.83 11.3,-7.2 18.63,-15.46 22.06,-24.74l0 -34.64 -43.58 0c-15.6,0 -28.11,3.91 -37.53,11.77 -9.35,7.87 -14.06,17.15 -14.06,27.78 0,9.42 2.96,16.88 8.88,22.4 5.84,5.51 14.59,8.26 26.16,8.26zm243.72 32.68c-29.65,0 -53.26,-9.88 -70.81,-29.65 -17.56,-19.7 -26.3,-45.4 -26.3,-76.87l0 -8.67c0,-30.33 9.02,-55.55 27.1,-75.72 18.02,-20.11 39.41,-30.2 64.16,-30.2 28.72,0 50.44,8.67 65.17,25.96 14.73,17.36 22.06,40.42 22.06,69.27l0 24.21 -138.27 0 -0.6 1.01c0.4,20.38 5.58,37.13 15.54,50.31 10.02,13.12 24,19.7 41.96,19.7 13.18,0 24.69,-1.89 34.64,-5.65 9.88,-3.7 18.43,-8.87 25.69,-15.46l15.14 25.28c-7.61,7.61 -17.62,13.86 -30.13,18.9 -12.45,5.04 -27.58,7.6 -45.33,7.6zm-5.85 -190.46c-13.04,0 -24.14,5.45 -33.35,16.28 -9.15,10.89 -14.79,24.48 -16.95,40.82l0.4 1.01 98.32 0 0 -5.04c0,-15.14 -4.03,-27.71 -12.17,-37.86 -8.2,-10.16 -20.24,-15.2 -36.25,-15.2zm252.19 135.58l1.14 0 69.74 -162.21 48.49 0 0 213.06 -38.8 0 0 -147.82 -1.21 -0.4 -65.37 148.22 -26.83 0 -66.58 -151.58 -1.21 0.4 0 151.18 -38.8 0 0 -213.06 50.03 0 69.4 162.21zm366.66 24.21c12.84,0 24.21,-3.97 33.96,-11.91 9.82,-7.93 14.73,-17.75 14.73,-29.25l34.84 0 0.4 1.14c0.68,18.43 -7.53,34.77 -24.54,49.17 -17.01,14.32 -36.79,21.51 -59.38,21.51 -31.01,0 -54.67,-10.08 -71.16,-30.33 -16.4,-20.17 -24.61,-45.59 -24.61,-76.2l0 -8.26c0,-30.33 8.27,-55.62 24.74,-75.93 16.48,-20.25 40.15,-30.4 71.02,-30.4 24.94,0 45.32,7.4 61.19,22.12 15.8,14.73 23.48,32.82 22.93,54.27l-0.4 1.14 -35.04 0c0,-12.98 -4.64,-24.08 -13.78,-33.16 -9.22,-9.14 -20.86,-13.72 -34.91,-13.72 -20.38,0 -34.91,7.26 -43.65,21.86 -8.74,14.59 -13.12,32.55 -13.12,53.74l0 8.2c0,21.72 4.38,39.81 13.05,54.27 8.67,14.46 23.2,21.72 43.71,21.72zm408.83 26.63l-185.96 0 0 -26.9 93.96 -104.11c16.81,-18.77 28.24,-33.63 34.23,-44.66 5.92,-11.03 8.94,-22.32 8.94,-33.83 0,-14.33 -4.17,-26.37 -12.51,-36.12 -8.34,-9.75 -19.44,-14.66 -33.22,-14.66 -19.85,0 -34.44,5.11 -43.86,15.27 -9.34,10.15 -14.05,24.34 -14.05,42.7l-37.26 0 -0.4 -1.14c-0.68,-24.68 7.53,-45.46 24.61,-62.27 17.08,-16.81 40.76,-25.22 70.95,-25.22 25.76,0 46.27,7.53 61.59,22.52 15.27,15.07 22.93,34.17 22.93,57.44 0,15.6 -4.63,31.27 -13.92,47.01 -9.22,15.67 -22.19,32.47 -38.87,50.5l-75.45 81.78 0.4 1.01 137.87 0 0 30.66zm222.86 -109.35c0,36.58 -8.14,64.63 -24.34,84.13 -16.2,19.5 -38.47,29.25 -66.71,29.25 -28.24,0 -50.58,-9.75 -66.98,-29.32 -16.41,-19.57 -24.62,-47.61 -24.62,-84.06l0 -67.99c0,-36.45 8.21,-64.5 24.55,-84.14 16.34,-19.64 38.59,-29.45 66.71,-29.45 28.18,0 50.5,9.82 66.85,29.45 16.34,19.64 24.54,47.69 24.54,84.14l0 67.99zm-38.8 -76.26c0,-24.75 -4.51,-43.38 -13.52,-55.89 -9.02,-12.52 -22.06,-18.77 -39.07,-18.77 -17.08,0 -30.13,6.25 -39.08,18.77 -8.87,12.51 -13.38,31.13 -13.38,55.89l0 83.93c0,24.75 4.58,43.45 13.59,56.09 9.07,12.65 22.12,18.97 39.2,18.97 17.08,0 30.06,-6.32 38.94,-18.9 8.87,-12.57 13.32,-31.26 13.32,-56.15l0 -83.93zm195.44 185.61l-38.8 0 0 -249.37 -58.72 0.81 0 -27.84 97.52 -10.49 0 286.9zm227.17 0l-38.8 0 0 -249.37 -58.72 0.81 0 -27.84 97.52 -10.49 0 286.9zm357.03 -182.39l-96.78 0 0 182.39 -38.8 0 0 -213.06 135.58 0 0 30.66zm18.7 73.78c0,-31.47 8.54,-57.43 25.62,-77.88 17.08,-20.38 40.28,-30.6 69.53,-30.6 29.6,0 52.93,10.15 70.08,30.53 17.15,20.31 25.69,46.33 25.69,77.94l0 4.38c0,31.74 -8.54,57.77 -25.62,77.94 -17.08,20.25 -40.28,30.33 -69.73,30.33 -29.4,0 -52.73,-10.15 -69.81,-30.4 -17.15,-20.31 -25.76,-46.27 -25.76,-77.88l0 -4.38zm38.8 4.24c0,22.52 4.78,41.09 14.33,55.75 9.47,14.66 23.67,21.99 42.44,21.99 18.56,0 32.54,-7.33 42.16,-21.99 9.62,-14.66 14.39,-33.23 14.39,-55.75l0 -4.31c0,-22.26 -4.84,-40.75 -14.46,-55.55 -9.68,-14.79 -23.8,-22.19 -42.5,-22.19 -18.49,0 -32.55,7.4 -42.03,22.19 -9.55,14.8 -14.33,33.29 -14.33,55.55l0 4.31zm197.24 73.71c10.89,-12.58 19.24,-25.7 25.02,-39.41 5.79,-13.72 9.62,-34.7 11.64,-63.01l3.16 -79.96 139.28 0 0 182.39 28.39 0 -3.77 93.21 -35.03 0 0 -62.55 -146.61 0 0 62.55 -35.11 0 -3.71 -93.21 16.75 0zm75.46 -102.5c-1.49,23.61 -4.84,43.78 -10.16,60.39 -5.31,16.68 -12.17,30.66 -20.58,42.1l95.57 0 0 -148.1 -63.08 0 -1.74 45.6zm303.57 133.16c-1.28,-6.45 -2.29,-12.11 -3.02,-17.01 -0.74,-4.98 -1.14,-9.88 -1.28,-14.93 -7.26,10.28 -16.68,18.83 -28.32,25.69 -11.56,6.85 -24.13,10.28 -37.53,10.28 -22.19,0 -39.07,-5.71 -50.7,-17.08 -11.64,-11.36 -17.42,-27.03 -17.42,-47.01 0,-20.37 8.21,-36.32 24.69,-47.81 16.47,-11.5 38.87,-17.21 67.11,-17.21l42.17 0 0 -20.99c0,-12.37 -3.83,-22.19 -11.44,-29.45 -7.6,-7.26 -18.43,-10.89 -32.34,-10.89 -12.45,0 -22.6,3.16 -30.4,9.48 -7.81,6.32 -11.77,13.92 -11.77,22.73l-36.99 0 -0.4 -1.14c-0.81,-15.47 6.52,-29.66 21.92,-42.5 15.47,-12.85 35.37,-19.24 59.86,-19.24 24.13,0 43.57,6.12 58.31,18.43 14.73,12.24 22.06,30 22.06,53.06l0 102.63c0,7.66 0.4,14.99 1.14,22.06 0.8,7.13 2.29,14.05 4.37,20.91l-40.01 0zm-64.43 -28.65c14.06,0 26.77,-3.63 38.07,-10.83 11.3,-7.2 18.63,-15.46 22.06,-24.74l0 -34.64 -43.58 0c-15.6,0 -28.11,3.91 -37.53,11.77 -9.35,7.87 -14.06,17.15 -14.06,27.78 0,9.42 2.96,16.88 8.88,22.4 5.84,5.51 14.59,8.26 26.16,8.26z"/>
  </g>
 </g>
</svg>
