<?xml version="1.0" encoding="UTF-8"?>
<!DOCTYPE svg PUBLIC "-//W3C//DTD SVG 1.1//EN" "http://www.w3.org/Graphics/SVG/1.1/DTD/svg11.dtd">
<!-- Creator: CorelDRAW 2018 (64-Bit) -->
<svg xmlns="http://www.w3.org/2000/svg" xml:space="preserve" width="30.8758mm" height="14.3366mm" version="1.1" style="shape-rendering:geometricPrecision; text-rendering:geometricPrecision; image-rendering:optimizeQuality; fill-rule:evenodd; clip-rule:evenodd"
viewBox="0 0 534.85 248.35"
 xmlns:xlink="http://www.w3.org/1999/xlink">
 <defs>
  <style type="text/css">
   <![CDATA[
    .fil0 {fill:#333333}
   ]]>
  </style>
 </defs>
 <g id="Слой_x0020_1">
  <metadata id="CorelCorpID_0Corel-Layer"/>
  <g id="_1627301994736">
   <g>
    <path class="fil0" d="M218.3 81.57c-0,0 -0.01,0 -0.01,0l-214.61 0c-2.03,-0 -3.68,1.64 -3.68,3.67 0,0 0,0.01 0,0.01l0 103.01c-0,2.03 1.64,3.68 3.67,3.68 0,0 0.01,0 0.01,0l145.93 0c2.03,0 3.68,-1.65 3.68,-3.68 0,-2.03 -1.65,-3.68 -3.68,-3.68l-142.25 0 0 -95.65 207.25 0 0 9.2c-0,2.03 1.64,3.68 3.67,3.68 0,0 0.01,0 0.01,0 2.03,0 3.68,-1.64 3.68,-3.67 0,-0 0,-0.01 0,-0.01l0 -12.88c0,-2.03 -1.64,-3.68 -3.67,-3.68z"/>
    <path class="fil0" d="M193.34 64.49l-171.69 -38.63c-0.95,-0.21 -1.95,-0.04 -2.78,0.48 -0.82,0.52 -1.41,1.35 -1.62,2.31l-8.58 38.63c-0.44,1.98 0.81,3.95 2.79,4.39 1.98,0.44 3.95,-0.81 4.39,-2.79l7.78 -35.03 168.09 37.82c0.27,0.06 0.54,0.09 0.81,0.09 2.03,-0 3.67,-1.65 3.67,-3.68 -0,-1.72 -1.19,-3.2 -2.87,-3.58z"/>
    <path class="fil0" d="M172.49 43.21l-103.01 -42.92c-1.79,-0.74 -3.85,0.02 -4.72,1.76l-8.58 17.17c-0.97,1.79 -0.3,4.03 1.49,5 1.79,0.97 4.03,0.3 5,-1.49 0.04,-0.07 0.07,-0.14 0.11,-0.22l0 0.01 7.04 -14.1 99.83 41.6c1.88,0.78 4.04,-0.1 4.82,-1.98 0.78,-1.88 -0.1,-4.04 -1.98,-4.82z"/>
    <path class="fil0" d="M175.09 98.74l-34.07 0c-2.03,0 -3.68,1.65 -3.68,3.68 0,2.03 1.65,3.68 3.68,3.68l34.07 0c2.03,0 3.68,-1.65 3.68,-3.68 0,-2.03 -1.65,-3.68 -3.68,-3.68z"/>
    <path class="fil0" d="M106.69 98.98c-20.86,0 -37.77,16.91 -37.77,37.77 0.02,20.85 16.92,37.75 37.77,37.77 20.86,0 37.77,-16.91 37.77,-37.77 0,-20.86 -16.91,-37.77 -37.77,-37.77zm0 68.67c-17.07,0 -30.9,-13.84 -30.9,-30.9 0.02,-17.06 13.84,-30.88 30.9,-30.9 17.07,0 30.9,13.84 30.9,30.9 0,17.07 -13.84,30.9 -30.9,30.9z"/>
    <path class="fil0" d="M209.7 111c-22.75,0 -47.21,5.37 -47.21,17.17l0 103.01c0,11.8 24.46,17.17 47.21,17.17 22.75,0 47.21,-5.37 47.21,-17.17l0 -103.01c0,-11.8 -24.46,-17.17 -47.21,-17.17zm38.63 120.12c-0.65,2.38 -13.52,8.65 -38.63,8.65 -25.11,0 -37.98,-6.27 -38.63,-8.58l0 -6.75c9.13,4.6 24.22,6.75 38.63,6.75 14.41,0 29.5,-2.17 38.63,-6.75l0 6.69zm0 -17.17c-0.65,2.38 -13.52,8.65 -38.63,8.65 -25.11,0 -37.98,-6.27 -38.63,-8.59l0 -6.75c9.13,4.6 24.22,6.75 38.63,6.75 14.41,0 29.5,-2.17 38.63,-6.75l0 6.69zm0 -17.17c-0.65,2.38 -13.52,8.65 -38.63,8.65 -25.11,0 -37.98,-6.27 -38.63,-8.59l0 -6.75c9.13,4.6 24.22,6.75 38.63,6.75 14.41,0 29.5,-2.17 38.63,-6.75l0 6.69zm0 -17.17c-0.65,2.38 -13.52,8.65 -38.63,8.65 -25.11,0 -37.98,-6.27 -38.63,-8.59l0 -6.75c9.13,4.6 24.22,6.75 38.63,6.75 14.41,0 29.5,-2.17 38.63,-6.75l0 6.69zm0 -17.17c-0.65,2.38 -13.52,8.65 -38.63,8.65 -25.11,0 -37.98,-6.27 -38.63,-8.58l0 -6.75c9.13,4.58 24.22,6.75 38.63,6.75 14.41,0 29.5,-2.17 38.63,-6.75l0 6.69zm0 -17.17c-0.65,2.38 -13.52,8.65 -38.63,8.65 -25.11,0 -37.98,-6.27 -38.63,-8.58l0 -6.75c9.13,4.58 24.22,6.75 38.63,6.75 14.41,0 29.5,-2.17 38.63,-6.75l0 6.69zm-38.63 -8.52c-25.07,0 -37.94,-6.25 -38.63,-8.51l0 -0.03c0.69,-2.39 13.56,-8.64 38.63,-8.64 24.89,0 37.77,6.16 38.63,8.59 -0.86,2.43 -13.74,8.58 -38.63,8.58z"/>
    <path class="fil0" d="M72.36 167.41l-32.45 0 -15.38 -16.83 0 -27.9 16.99 -16.59 30.84 0c2.03,0 3.68,-1.65 3.68,-3.68 0,-2.03 -1.65,-3.68 -3.68,-3.68l-32.33 0c-0.96,-0 -1.89,0.37 -2.58,1.04l-19.17 18.7c-0.72,0.84 -1.11,1.9 -1.11,3l0 30.53c0,0.92 0.34,1.8 0.96,2.48l17.44 19.07c0.7,0.76 1.68,1.2 2.72,1.2l34.07 0c2.03,0 3.68,-1.65 3.68,-3.68 0,-2.03 -1.65,-3.68 -3.68,-3.68z"/>
    <path class="fil0" d="M108.84 132.46l-4.29 0c-1.34,0 -2.15,-0.75 -2.15,-1.07 0,-0.33 0.81,-1.07 2.15,-1.07l10.73 0c2.37,0 4.29,-1.92 4.29,-4.29 0,-2.37 -1.92,-4.29 -4.29,-4.29l-4.29 0c0,-2.37 -1.92,-4.29 -4.29,-4.29 -2.37,0 -4.29,1.92 -4.29,4.29l0 0.19c-4.76,0.67 -8.37,4.64 -8.59,9.44 0.31,5.63 5.1,9.95 10.73,9.68l4.29 0c1.34,0 2.15,0.75 2.15,1.07 0,0.33 -0.81,1.07 -2.15,1.07l-10.73 0c-2.37,0 -4.29,1.92 -4.29,4.29 0,2.37 1.92,4.29 4.29,4.29l4.29 0c0,2.37 1.92,4.29 4.29,4.29 2.37,0 4.29,-1.92 4.29,-4.29l0 -0.19c4.76,-0.67 8.37,-4.64 8.59,-9.44 -0.31,-5.63 -5.1,-9.95 -10.73,-9.68z"/>
   </g>
   <g>
    <path class="fil0" d="M435.23 157.95l56.89 0c2.13,0 3.55,-1.42 3.55,-3.56l0 -32c0,-2.13 -1.42,-3.56 -3.55,-3.56l-56.89 0c-2.13,0 -3.56,1.42 -3.56,3.55l0 32c0,2.13 1.42,3.55 3.56,3.55zm3.55 -32l49.78 0 0 24.89 -49.78 0 0 -24.89z"/>
    <path class="fil0" d="M339.23 111.73l28.44 0c2.13,0 3.56,-1.42 3.56,-3.55 0,-2.13 -1.42,-3.56 -3.56,-3.56l-28.44 0c-2.13,0 -3.55,1.42 -3.55,3.56 0,2.13 1.42,3.55 3.55,3.55z"/>
    <path class="fil0" d="M381.9 111.73l28.44 0c2.13,0 3.56,-1.42 3.56,-3.55 0,-2.13 -1.42,-3.56 -3.56,-3.56l-28.44 0c-2.13,0 -3.55,1.42 -3.55,3.56 0,2.13 1.42,3.55 3.55,3.55z"/>
    <path class="fil0" d="M339.23 125.95l46.22 0c2.13,0 3.55,-1.42 3.55,-3.55 0,-2.13 -1.42,-3.56 -3.55,-3.56l-46.22 0c-2.13,0 -3.55,1.42 -3.55,3.55 0,2.13 1.42,3.55 3.55,3.55z"/>
    <path class="fil0" d="M410.34 118.84l-10.67 0c-2.13,0 -3.56,1.42 -3.56,3.56 0,2.13 1.42,3.55 3.56,3.55l10.67 0c2.13,0 3.55,-1.42 3.55,-3.55 0,-2.13 -1.42,-3.56 -3.55,-3.56z"/>
    <path class="fil0" d="M531.58 74.75c-2.49,-3.2 -5.69,-4.98 -9.6,-5.33l-8.53 -1.03 0 -9.99 0 -7.11c0,-7.82 -6.4,-14.22 -14.22,-14.22l-163.55 0c-7.82,0 -14.22,6.4 -14.22,14.22l0 7.11 0 28.44 0 78.22c0,6.42 4.32,11.88 10.19,13.63 -0.18,7.19 5.26,13.44 12.57,14.1l164.26 18.49c0.36,0 1.07,0 1.42,0 7.11,0 13.51,-5.33 14.22,-12.09l10.67 -114.13c0.36,-3.56 -0.71,-7.47 -3.2,-10.31zm-203.02 -12.8l177.77 0 0 9.25 0 12.09 -177.77 0 0 -21.33zm7.11 -17.78l163.55 0c3.91,0 7.11,3.2 7.11,7.11l0 3.55 -177.77 0 0 -3.55c0,-3.91 3.2,-7.11 7.11,-7.11zm-7.11 120.89l0 -74.67 177.77 0 0 74.67c0,3.91 -3.2,7.11 -7.11,7.11l-163.2 0 -0.36 0c-3.91,0 -7.11,-3.2 -7.11,-7.11zm199.11 -81.42l-10.67 114.13c-0.36,3.91 -3.91,6.75 -7.82,6.4l-163.91 -18.49c-3.55,-0.36 -6.04,-3.2 -6.4,-6.4l160.35 0c7.82,0 14.22,-6.4 14.22,-14.22l0 -78.22 0 -11.73 8.18 0.71c1.78,0 3.56,1.07 4.62,2.49 1.07,1.42 1.78,3.55 1.42,5.33z"/>
   </g>
  </g>
 </g>
</svg>
