<?xml version="1.0" encoding="UTF-8"?>
<!DOCTYPE svg PUBLIC "-//W3C//DTD SVG 1.1//EN" "http://www.w3.org/Graphics/SVG/1.1/DTD/svg11.dtd">
<!-- Creator: CorelDRAW 2018 (64-Bit) -->
<svg xmlns="http://www.w3.org/2000/svg" xml:space="preserve" width="79.1981mm" height="16.5563mm" version="1.1" style="shape-rendering:geometricPrecision; text-rendering:geometricPrecision; image-rendering:optimizeQuality; fill-rule:evenodd; clip-rule:evenodd"
viewBox="0 0 7086.12 1481.35"
 xmlns:xlink="http://www.w3.org/1999/xlink">
 <defs>
  <style type="text/css">
   <![CDATA[
    .fil2 {fill:black}
    .fil5 {fill:#00B1EB}
    .fil3 {fill:#ED70A7}
    .fil4 {fill:#FFDD00}
    .fil0 {fill:#2B2A29;fill-rule:nonzero}
    .fil1 {fill:#666666;fill-rule:nonzero}
   ]]>
  </style>
 </defs>
 <g id="Слой_x0020_1">
  <metadata id="CorelCorpID_0Corel-Layer"/>
  <g id="_1344161688496">
   <g>
    <path class="fil0" d="M2026.45 713.28l-52.89 0 0 -341.42 -146.55 0 0 341.42 -53.24 0 0 -381.68 252.67 0 0 381.68zm170.08 5.37c-33.73,0 -60.67,-11.72 -80.97,-35.07 -20.22,-23.44 -30.42,-53.42 -30.42,-89.91l0 -41.34c0,-37.04 9.92,-67.65 29.79,-91.71 19.76,-24.07 45.01,-36.15 75.61,-36.15 32.11,0 56.9,10.91 74.16,32.84 17.28,21.92 25.95,51.36 25.95,88.3l0 36.68 -152.55 0 0 11.27c0,24.52 5.37,44.74 16.11,60.75 10.73,16.02 26.03,24.08 45.71,24.08 14.77,0 27.3,-2.34 37.76,-6.98 10.56,-4.66 20.49,-11.37 29.88,-20.32l16.82 33.02c-8.95,10.12 -20.94,18.44 -35.97,24.87 -15.02,6.44 -32.29,9.66 -51.89,9.66zm-5.99 -253.92c-15.38,0 -27.74,7.51 -36.94,22.46 -9.31,15.03 -14.41,34 -15.49,56.99l99.85 0 0 -10.82c0,-20.13 -4.03,-36.59 -12.08,-49.4 -7.96,-12.79 -19.77,-19.23 -35.34,-19.23zm357.08 130.26c0,37.4 -8.23,67.28 -24.69,89.83 -16.38,22.55 -39.2,33.82 -68.37,33.82 -13.87,0 -25.94,-2.68 -36.51,-8.14 -10.47,-5.37 -19.42,-13.33 -26.92,-23.79l0 135.54 -53.24 0 0 -392.43 47.41 0 3.4 32.4c7.52,-12.08 16.73,-21.38 27.57,-27.92 10.82,-6.54 23.44,-9.84 37.75,-9.84 29.54,0 52.52,12.44 68.9,37.21 16.45,24.79 24.69,57.62 24.69,98.51l0 34.81zm-53.23 -34.81c0,-27.83 -4.56,-50.45 -13.77,-68.09 -9.14,-17.53 -22.82,-26.31 -40.98,-26.31 -11.37,0 -21.12,3.23 -29.18,9.67 -7.96,6.53 -14.49,15.29 -19.32,26.48l0 143.43c4.64,10.65 11.09,18.79 19.05,24.52 8.06,5.65 17.98,8.51 29.62,8.51 18.43,0 32.03,-7.61 41.07,-22.91 9.04,-15.3 13.51,-35.43 13.51,-60.49l0 -34.81zm107.73 153.08l0 -283.44 96.99 0c31.49,0 56.01,6.53 73.64,19.5 17.63,13.07 26.48,32.4 26.48,58.08 0,13.69 -3.76,25.76 -11.36,36.42 -7.61,10.74 -18.43,18.61 -32.39,23.89 17.45,4.03 30.86,11.98 40.26,23.98 9.3,11.9 13.96,25.86 13.96,41.69 0,26.39 -8.32,46.25 -24.87,59.77 -16.64,13.41 -40.08,20.12 -70.51,20.12l-112.2 0zm52.98 -124.55l0 84.29 59.23 0c13.96,0 24.52,-3.58 31.67,-10.84 7.16,-7.15 10.74,-17.71 10.74,-31.58 0,-13.15 -3.49,-23.44 -10.57,-30.79 -7.07,-7.42 -17.71,-11.09 -31.84,-11.09l-59.23 0zm0 -37.58l47.41 0c14.49,-0.17 25.42,-3.66 32.76,-10.38 7.33,-6.8 11.01,-16.64 11.01,-29.61 0,-13.87 -3.94,-24.16 -11.81,-30.96 -7.79,-6.71 -19.6,-10.12 -35.34,-10.12l-44.02 0 0 81.06zm262.15 -25.76l52.97 0c30.15,0 53.95,8.68 71.13,26.04 17.18,17.45 25.86,39.9 25.86,67.55 0,27.74 -8.68,50.37 -25.86,67.99 -17.18,17.54 -40.98,26.31 -71.13,26.31l-105.93 0 0 -283.44 52.96 0 0 95.56zm243.99 187.89l-53.15 0 0 -283.44 53.15 0 0 283.44zm-243.99 -147.62l0 107.37 52.97 0c14.85,0 25.87,-5.01 33.02,-15.04 7.16,-10.01 10.75,-22.82 10.75,-38.29 0,-14.94 -3.59,-27.66 -10.75,-38.21 -7.15,-10.56 -18.16,-15.84 -33.02,-15.84l-52.97 0zm461.86 -135.82l52.96 0 0 283.45 -52.96 0 0 -192.18 -1.62 -0.27 -93.31 192.45 -53.15 0 0 -283.45 53.15 0 0 192.01 1.61 0.18 93.32 -192.19zm25.05 -116.58l0.44 1.52c0.72,20.67 -5.64,37.4 -18.97,50.19 -13.32,12.79 -31.4,19.24 -54.12,19.24 -22.91,0 -40.98,-6.44 -54.41,-19.24 -13.33,-12.79 -19.59,-29.53 -18.7,-50.19l0.45 -1.52 39.64 0c0,11.45 2.68,20.94 7.97,28.27 5.37,7.34 13.69,11.01 25.05,11.01 10.82,0 18.87,-3.67 24.25,-11.01 5.37,-7.34 7.95,-16.82 7.95,-28.27l40.45 0zm408.53 400.03l-53.24 0 0 -243.19 -94.66 0 0 243.19 -53.15 0 0 -283.44 201.05 0 0 283.44zm164.28 5.38c-33.73,0 -60.67,-11.72 -80.97,-35.08 -20.22,-23.44 -30.42,-53.42 -30.42,-89.91l0 -41.34c0,-37.04 9.92,-67.65 29.79,-91.71 19.76,-24.07 45.01,-36.15 75.6,-36.15 32.12,0 56.91,10.92 74.17,32.84 17.27,21.92 25.95,51.36 25.95,88.3l0 36.69 -152.55 0 0 11.26c0,24.52 5.37,44.75 16.11,60.76 10.73,16.01 26.03,24.07 45.71,24.07 14.77,0 27.3,-2.34 37.76,-6.98 10.56,-4.65 20.49,-11.37 29.88,-20.32l16.82 33.02c-8.95,10.11 -20.94,18.43 -35.97,24.87 -15.02,6.43 -32.29,9.66 -51.89,9.66zm-6 -253.93c-15.38,0 -27.73,7.51 -36.94,22.46 -9.31,15.03 -14.41,34 -15.49,56.99l99.85 0 0 -10.83c0,-20.13 -4.03,-36.59 -12.08,-49.4 -7.96,-12.79 -19.77,-19.23 -35.34,-19.23zm338.75 248.55l-52.98 0 0 -102.89c-7.33,2.24 -14.76,3.93 -22.19,5.1 -7.42,1.16 -14.58,1.69 -21.65,1.69 -32.83,0 -57.97,-8.67 -75.6,-25.94 -17.54,-17.27 -26.31,-44.38 -26.31,-81.33l0 -80.08 52.97 0 0 80.26c0,24.42 3.85,41.69 11.62,51.72 7.79,10.11 20.23,15.11 37.31,15.11 7.52,0 14.86,-0.62 22.11,-1.96 7.15,-1.34 14.41,-3.22 21.73,-5.65l0 -139.48 52.98 0 0 283.44zm206.5 0c-1.89,-6.52 -3.49,-12.88 -4.75,-19.05 -1.15,-6.27 -1.97,-12.54 -2.32,-18.8 -7.87,12.71 -17.72,23.18 -29.62,31.14 -11.9,8.06 -25.05,12.09 -39.55,12.09 -23.98,0 -42.68,-7.52 -56.28,-22.65 -13.51,-15.12 -20.31,-35.34 -20.31,-60.65 0,-27.02 9.22,-48.23 27.65,-63.71 18.43,-15.49 44.38,-23.18 77.75,-23.18l39.55 0 0 -28.98c0,-17.18 -3.85,-30.61 -11.54,-40.26 -7.69,-9.66 -18.61,-14.49 -32.75,-14.49 -12.71,0 -22.99,4.38 -30.79,13.05 -7.78,8.69 -11.62,19.51 -11.62,32.57l-50.64 -0.26 -0.81 -1.52c-0.81,-21.92 7.87,-41.43 26.22,-58.52 18.34,-17.08 42.05,-25.58 71.04,-25.58 28.01,0 50.64,8.22 68,24.78 17.45,16.46 26.12,39.99 26.12,70.59l0 131.62c0,11.01 0.63,21.56 1.97,31.85 1.34,10.19 3.49,20.22 6.45,29.96l-53.77 0zm-64.25 -34.89c12.44,0 23.72,-3.68 34,-11.01 10.21,-7.35 17.72,-16.55 22.38,-27.57l0 -58.07 -40.35 0c-16.28,0 -28.9,5.2 -37.85,15.67 -9.04,10.38 -13.52,23.08 -13.52,38.21 0,12.7 3.05,23.08 9.14,30.96 6.17,7.86 14.85,11.81 26.21,11.81zm354.94 -208.3l-78.64 0 0 243.19 -53.42 0 0 -243.19 -77.13 0 0 -40.25 209.18 0 0 40.25zm242.74 243.19l-53.24 0 0 -121.32 -94.39 0 0 121.32 -53.16 0 0 -283.44 53.16 0 0 121.86 94.39 0 0 -121.86 53.24 0 0 283.44zm118.45 -187.89l52.97 0c30.15,0 53.95,8.68 71.13,26.04 17.18,17.45 25.86,39.9 25.86,67.55 0,27.74 -8.68,50.37 -25.86,67.99 -17.18,17.54 -40.98,26.31 -71.13,26.31l-105.94 0 0 -283.44 52.97 0 0 95.56zm243.99 187.89l-53.15 0 0 -283.44 53.15 0 0 283.44zm-243.99 -147.62l0 107.37 52.97 0c14.85,0 25.86,-5.01 33.02,-15.04 7.16,-10.01 10.74,-22.82 10.74,-38.29 0,-14.94 -3.58,-27.66 -10.74,-38.21 -7.16,-10.56 -18.16,-15.84 -33.02,-15.84l-52.97 0zm461.86 -135.82l52.97 0 0 283.45 -52.97 0 0 -192.18 -1.61 -0.27 -93.32 192.45 -53.15 0 0 -283.45 53.15 0 0 192.01 1.61 0.18 93.32 -192.19zm25.05 -116.58l0.45 1.52c0.72,20.67 -5.64,37.4 -18.97,50.19 -13.33,12.79 -31.41,19.24 -54.13,19.24 -22.91,0 -40.98,-6.44 -54.4,-19.24 -13.33,-12.79 -19.59,-29.53 -18.7,-50.19l0.45 -1.52 39.64 0c0,11.45 2.68,20.94 7.96,28.27 5.37,7.34 13.69,11.01 25.05,11.01 10.82,0 18.88,-3.67 24.25,-11.01 5.37,-7.34 7.96,-16.82 7.96,-28.27l40.44 0zm207.49 116.58l53.16 0 0 243.19 94.65 0 0 -243.19 53.24 0 0 243.19 32.48 0 -3.94 124.56 -49.03 0 0 -84.29 -180.56 0 0 -283.45zm378.75 288.82c-33.74,0 -60.67,-11.72 -80.97,-35.07 -20.22,-23.44 -30.42,-53.42 -30.42,-89.91l0 -41.34c0,-37.04 9.92,-67.65 29.79,-91.71 19.76,-24.07 45.01,-36.15 75.6,-36.15 32.12,0 56.91,10.91 74.17,32.84 17.27,21.92 25.95,51.36 25.95,88.3l0 36.68 -152.55 0 0 11.27c0,24.52 5.37,44.74 16.11,60.75 10.73,16.02 26.03,24.08 45.71,24.08 14.77,0 27.29,-2.34 37.76,-6.98 10.56,-4.66 20.49,-11.37 29.88,-20.32l16.82 33.02c-8.95,10.12 -20.94,18.44 -35.97,24.87 -15.02,6.44 -32.3,9.66 -51.89,9.66zm-6 -253.92c-15.38,0 -27.74,7.51 -36.94,22.46 -9.31,15.03 -14.41,34 -15.49,56.99l99.85 0 0 -10.82c0,-20.13 -4.03,-36.59 -12.08,-49.4 -7.96,-12.79 -19.77,-19.23 -35.34,-19.23zm348.95 248.55l-53.23 0 0 -121.33 -94.39 0 0 121.33 -53.15 0 0 -283.45 53.15 0 0 121.86 94.39 0 0 -121.86 53.23 0 0 283.45zm251.06 -243.19l-78.65 0 0 243.19 -53.42 0 0 -243.19 -77.13 0 0 -40.26 209.19 0 0 40.26zm250.87 124.91c0,37.4 -8.24,67.28 -24.69,89.83 -16.37,22.55 -39.19,33.82 -68.36,33.82 -13.87,0 -25.95,-2.68 -36.51,-8.14 -10.47,-5.37 -19.42,-13.33 -26.93,-23.8l0 135.55 -53.24 0 0 -392.43 47.42 0 3.4 32.39c7.52,-12.07 16.73,-21.38 27.56,-27.91 10.83,-6.54 23.44,-9.84 37.76,-9.84 29.53,0 52.52,12.44 68.89,37.21 16.45,24.78 24.69,57.62 24.69,98.51l0 34.81zm-53.24 -34.81c0,-27.83 -4.55,-50.45 -13.77,-68.09 -9.14,-17.53 -22.82,-26.31 -40.98,-26.31 -11.36,0 -21.12,3.23 -29.18,9.66 -7.95,6.54 -14.49,15.3 -19.32,26.48l0 143.43c4.65,10.65 11.09,18.79 19.06,24.52 8.05,5.65 17.98,8.5 29.62,8.5 18.42,0 32.03,-7.61 41.07,-22.91 9.04,-15.29 13.5,-35.42 13.5,-60.48l0 -34.81z"/>
    <path class="fil1" d="M1940.52 1175.33l-37.45 0 0 -176.02 -91.84 0 0 176.02 -37.45 0 0 -205.62 166.75 0 0 205.62zm139.93 3.89c-28.61,0 -51.4,-9.54 -68.34,-28.61 -16.95,-19.02 -25.38,-43.82 -25.38,-74.2l0 -8.37c0,-29.27 8.71,-53.61 26.15,-73.08 17.4,-19.41 38.04,-29.14 61.92,-29.14 27.72,0 48.68,8.37 62.9,25.04 14.21,16.76 21.29,39.02 21.29,66.85l0 23.37 -133.45 0 -0.58 0.98c0.39,19.67 5.39,35.83 15,48.55 9.67,12.66 23.16,19.02 40.5,19.02 12.72,0 23.83,-1.83 33.44,-5.46 9.54,-3.57 17.78,-8.56 24.79,-14.92l14.6 24.4c-7.34,7.35 -17.01,13.38 -29.08,18.24 -12.01,4.87 -26.61,7.33 -43.75,7.33zm-5.65 -183.81c-12.59,0 -23.3,5.26 -32.19,15.72 -8.83,10.51 -14.27,23.62 -16.35,39.39l0.39 0.98 94.89 0 0 -4.87c0,-14.61 -3.89,-26.74 -11.75,-36.54 -7.91,-9.81 -19.53,-14.67 -34.98,-14.67l-0.01 0zm286.96 179.91l-37.51 0 0 -73.48c-7.21,1.89 -14.61,3.32 -22.2,4.29 -7.66,0.98 -15.77,1.42 -24.34,1.42 -24.86,0 -44.33,-6.56 -58.49,-19.6 -14.15,-13.11 -21.22,-32.45 -21.22,-58.09l0 -60.56 37.45 0 0 60.63c0,16.49 3.57,28.62 10.65,36.42 7.14,7.71 17.65,11.61 31.61,11.61 8.37,0 16.35,-0.46 23.94,-1.42 7.6,-0.98 15.12,-2.41 22.59,-4.29l0 -102.55 37.51 0 0 205.62 0 -0.01zm180.76 0c-1.24,-6.23 -2.21,-11.67 -2.92,-16.42 -0.72,-4.8 -1.11,-9.54 -1.24,-14.41 -7.01,9.92 -16.1,18.17 -27.33,24.79 -11.16,6.61 -23.29,9.92 -36.22,9.92 -21.41,0 -37.7,-5.51 -48.93,-16.48 -11.23,-10.97 -16.81,-26.09 -16.81,-45.37 0,-19.66 7.92,-35.05 23.83,-46.14 15.9,-11.1 37.51,-16.62 64.77,-16.62l40.7 0 0 -20.26c0,-11.94 -3.7,-21.42 -11.04,-28.43 -7.33,-7.01 -17.78,-10.52 -31.22,-10.52 -12.01,0 -21.8,3.06 -29.33,9.15 -7.53,6.1 -11.36,13.44 -11.36,21.95l-35.71 0 -0.38 -1.11c-0.78,-14.93 6.3,-28.62 21.16,-41.01 14.93,-12.4 34.14,-18.57 57.77,-18.57 23.29,0 42.05,5.91 56.27,17.78 14.22,11.81 21.29,28.95 21.29,51.21l0 99.05c0,7.4 0.38,14.48 1.1,21.29 0.77,6.88 2.21,13.56 4.21,20.18l-38.62 0 0.01 0zm-62.18 -27.64c13.57,0 25.83,-3.51 36.75,-10.45 10.9,-6.95 17.98,-14.92 21.29,-23.88l0 -33.44 -42.06 0c-15.06,0 -27.13,3.78 -36.22,11.36 -9.02,7.6 -13.56,16.55 -13.56,26.81 0,9.09 2.85,16.29 8.57,21.62 5.64,5.32 14.08,7.98 25.24,7.98zm305.39 -148.37l-67.89 0 0 176.02 -37.45 0 0 -176.02 -66.92 0 0 -29.59 172.26 0 0 29.59zm164.08 176.02c-1.24,-6.23 -2.21,-11.67 -2.92,-16.42 -0.72,-4.8 -1.1,-9.54 -1.24,-14.41 -7,9.92 -16.1,18.17 -27.33,24.79 -11.17,6.61 -23.3,9.92 -36.22,9.92 -21.42,0 -37.71,-5.5 -48.93,-16.48 -11.24,-10.97 -16.82,-26.09 -16.82,-45.37 0,-19.66 7.93,-35.05 23.83,-46.14 15.9,-11.1 37.51,-16.62 64.78,-16.62l40.69 0 0 -20.26c0,-11.94 -3.7,-21.42 -11.03,-28.43 -7.34,-7.01 -17.79,-10.52 -31.22,-10.52 -12.02,0 -21.81,3.06 -29.34,9.15 -7.53,6.1 -11.36,13.44 -11.36,21.95l-35.7 0 -0.38 -1.11c-0.79,-14.92 6.29,-28.62 21.16,-41.01 14.92,-12.4 34.13,-18.57 57.77,-18.57 23.29,0 42.04,5.91 56.27,17.78 14.21,11.81 21.29,28.95 21.29,51.21l0 99.05c0,7.4 0.38,14.48 1.1,21.29 0.78,6.88 2.21,13.56 4.21,20.18l-38.62 0 0.01 0zm-62.18 -27.64c13.56,0 25.83,-3.51 36.74,-10.45 10.91,-6.94 17.98,-14.92 21.29,-23.88l0 -33.44 -42.05 0c-15.07,0 -27.14,3.78 -36.22,11.36 -9.03,7.6 -13.57,16.55 -13.57,26.81 0,9.09 2.86,16.29 8.57,21.62 5.65,5.32 14.08,7.98 25.25,7.98zm235.22 31.53c-28.62,0 -51.4,-9.54 -68.34,-28.61 -16.95,-19.02 -25.38,-43.82 -25.38,-74.2l0 -8.37c0,-29.27 8.71,-53.61 26.15,-73.08 17.39,-19.41 38.04,-29.14 61.92,-29.14 27.72,0 48.68,8.37 62.89,25.04 14.22,16.76 21.29,39.02 21.29,66.85l0 23.37 -133.45 0 -0.58 0.98c0.38,19.67 5.39,35.83 15,48.56 9.67,12.65 23.16,19.01 40.5,19.01 12.72,0 23.83,-1.83 33.44,-5.46 9.54,-3.57 17.78,-8.56 24.78,-14.92l14.61 24.4c-7.34,7.35 -17.01,13.38 -29.08,18.24 -12.02,4.87 -26.61,7.33 -43.75,7.33zm-5.64 -183.81c-12.59,0 -23.31,5.27 -32.19,15.72 -8.83,10.51 -14.27,23.62 -16.35,39.39l0.38 0.98 94.9 0 0 -4.87c0,-14.6 -3.89,-26.74 -11.75,-36.54 -7.91,-9.81 -19.53,-14.67 -34.98,-14.67l-0.01 0zm243.39 130.85l1.11 0 67.31 -156.55 46.79 0 0 205.62 -37.44 0 0 -142.66 -1.17 -0.39 -63.09 143.04 -25.9 0 -64.25 -146.3 -1.17 0.39 0 145.9 -37.45 0 0 -205.62 48.29 0 66.98 156.55 0 0.01zm353.86 23.38c12.39,0 23.37,-3.83 32.78,-11.49 9.48,-7.66 14.21,-17.13 14.21,-28.24l33.62 0 0.38 1.11c0.65,17.78 -7.27,33.55 -23.68,47.45 -16.43,13.81 -35.51,20.76 -57.32,20.76 -29.92,0 -52.76,-9.73 -68.67,-29.26 -15.84,-19.47 -23.76,-44 -23.76,-73.54l0 -7.98c0,-29.26 7.99,-53.68 23.88,-73.28 15.91,-19.54 38.75,-29.34 68.55,-29.34 24.08,0 43.74,7.14 59.06,21.35 15.26,14.22 22.66,31.67 22.14,52.39l-0.38 1.1 -33.82 0c0,-12.53 -4.48,-23.24 -13.3,-32 -8.89,-8.82 -20.12,-13.24 -33.69,-13.24 -19.67,0 -33.69,7.01 -42.12,21.1 -8.44,14.08 -12.66,31.41 -12.66,51.87l0 7.91c0,20.96 4.22,38.43 12.6,52.39 8.37,13.95 22.4,20.96 42.18,20.96l0.01 -0.01zm394.58 25.68l-179.47 0 0 -25.96 90.68 -100.48c16.22,-18.11 27.25,-32.45 33.03,-43.1 5.71,-10.64 8.63,-21.55 8.63,-32.65 0,-13.82 -4.02,-25.44 -12.07,-34.86 -8.04,-9.4 -18.75,-14.15 -32.06,-14.15 -19.15,0 -33.24,4.93 -42.32,14.74 -9.02,9.8 -13.56,23.5 -13.56,41.21l-35.96 0 -0.38 -1.1c-0.65,-23.82 7.27,-43.87 23.75,-60.1 16.49,-16.23 39.34,-24.35 68.48,-24.35 24.86,0 44.66,7.27 59.45,21.74 14.74,14.55 22.14,32.98 22.14,55.44 0,15.06 -4.47,30.18 -13.43,45.37 -8.89,15.12 -21.42,31.34 -37.51,48.74l-72.82 78.93 0.38 0.98 133.06 0 0 29.59 -0.01 0zm215.09 -105.53c0,35.31 -7.86,62.37 -23.5,81.2 -15.64,18.83 -37.13,28.23 -64.39,28.23 -27.25,0 -48.81,-9.4 -64.64,-28.29 -15.84,-18.89 -23.76,-45.95 -23.76,-81.13l0 -65.62c0,-35.18 7.92,-62.24 23.69,-81.2 15.77,-18.96 37.25,-28.43 64.39,-28.43 27.2,0 48.75,9.48 64.52,28.43 15.77,18.95 23.69,46.02 23.69,81.2l0 65.62 0.01 0zm-37.44 -73.6c0,-23.89 -4.35,-41.86 -13.05,-53.93 -8.71,-12.08 -21.29,-18.12 -37.71,-18.12 -16.48,0 -29.08,6.04 -37.71,18.12 -8.56,12.07 -12.92,30.05 -12.92,53.93l0 81c0,23.89 4.42,41.93 13.12,54.13 8.76,12.2 21.36,18.31 37.84,18.31 16.49,0 29.02,-6.1 37.58,-18.24 8.57,-12.13 12.86,-30.18 12.86,-54.19l0 -81zm188.62 179.13l-37.45 0 0 -240.67 -56.67 0.79 0 -26.88 94.13 -10.13 0 276.88 0 0.01zm219.25 0l-37.45 0 0 -240.67 -56.66 0.79 0 -26.88 94.12 -10.13 0 276.88 0 0.01zm344.58 -176.02l-93.41 0 0 176.02 -37.44 0 0 -205.62 130.85 0 0 29.59 0 0.01zm18.05 71.2c0,-30.38 8.24,-55.42 24.73,-75.16 16.48,-19.67 38.88,-29.53 67.11,-29.53 28.57,0 51.09,9.8 67.63,29.46 16.55,19.6 24.79,44.72 24.79,75.22l0 4.22c0,30.64 -8.24,55.76 -24.73,75.23 -16.48,19.54 -38.88,29.26 -67.3,29.26 -28.37,0 -50.89,-9.8 -67.37,-29.33 -16.55,-19.61 -24.86,-44.66 -24.86,-75.17l0 -4.22 0 0.01zm37.45 4.1c0,21.74 4.61,39.65 13.82,53.81 9.14,14.15 22.84,21.22 40.95,21.22 17.91,0 31.41,-7.08 40.69,-21.22 9.28,-14.15 13.89,-32.07 13.89,-53.81l0 -4.16c0,-21.48 -4.67,-39.32 -13.95,-53.61 -9.35,-14.28 -22.98,-21.42 -41.02,-21.42 -17.85,0 -31.41,7.14 -40.56,21.42 -9.22,14.29 -13.82,32.13 -13.82,53.61l0 4.16zm190.36 71.14c10.51,-12.14 18.56,-24.8 24.15,-38.04 5.58,-13.23 9.28,-33.48 11.23,-60.82l3.04 -77.17 134.42 0 0 176.02 27.4 0 -3.64 89.96 -33.81 0 0 -60.37 -141.49 0 0 60.37 -33.88 0 -3.58 -89.96 16.17 0 0 0.01zm72.83 -98.92c-1.44,22.79 -4.68,42.25 -9.81,58.28 -5.13,16.11 -11.75,29.6 -19.86,40.64l92.23 0 0 -142.93 -60.88 0 -1.68 44.01zm292.98 128.5c-1.24,-6.23 -2.21,-11.67 -2.92,-16.42 -0.72,-4.8 -1.1,-9.54 -1.24,-14.41 -7,9.92 -16.1,18.17 -27.33,24.79 -11.17,6.61 -23.3,9.92 -36.22,9.92 -21.42,0 -37.71,-5.51 -48.93,-16.48 -11.24,-10.97 -16.82,-26.09 -16.82,-45.37 0,-19.66 7.93,-35.05 23.83,-46.14 15.9,-11.1 37.51,-16.62 64.78,-16.62l40.69 0 0 -20.26c0,-11.94 -3.7,-21.42 -11.03,-28.43 -7.34,-7.01 -17.79,-10.52 -31.22,-10.52 -12.02,0 -21.81,3.06 -29.34,9.15 -7.53,6.1 -11.36,13.44 -11.36,21.95l-35.7 0 -0.38 -1.11c-0.79,-14.93 6.29,-28.62 21.16,-41.01 14.92,-12.4 34.13,-18.57 57.76,-18.57 23.3,0 42.05,5.91 56.28,17.78 14.21,11.81 21.29,28.95 21.29,51.21l0 99.05c0,7.4 0.38,14.48 1.1,21.29 0.78,6.88 2.21,13.56 4.21,20.18l-38.62 0 0.01 0zm-62.19 -27.64c13.56,0 25.83,-3.51 36.74,-10.45 10.9,-6.95 17.98,-14.92 21.29,-23.88l0 -33.44 -42.06 0c-15.06,0 -27.13,3.78 -36.21,11.36 -9.03,7.6 -13.57,16.55 -13.57,26.81 0,9.09 2.86,16.29 8.57,21.62 5.65,5.32 14.08,7.98 25.25,7.98z"/>
   </g>
   <g>
    <polygon class="fil2" points="-0,0 1481.34,0 1481.34,1481.35 -0,1481.35 "/>
    <g>
     <polygon class="fil3" points="515.05,1122.21 994.26,1122.21 994.26,1241.38 515.05,1241.38 "/>
     <polygon class="fil4" points="615.33,770.63 921.99,770.63 921.99,889.77 615.33,889.77 615.33,850.05 615.33,804.48 "/>
     <polygon class="fil5" points="615.33,941.21 921.99,941.21 921.99,1060.37 596.45,1060.37 615.33,1020.65 615.33,975.06 "/>
     <polygon class="fil3" points="600.99,590.26 921.99,590.26 921.99,709.42 615.33,709.42 615.33,669.7 615.33,624.13 "/>
     <polygon class="fil5" points="561.95,409.25 921.99,409.25 921.99,528.4 487.07,528.4 "/>
     <polygon class="fil4" points="925.26,239.96 925.26,357.83 589.93,357.83 671.32,239.96 "/>
    </g>
   </g>
  </g>
 </g>
</svg>
