<svg width="152" height="54" viewBox="0 0 152 54" fill="none" xmlns="http://www.w3.org/2000/svg">
<path fill-rule="evenodd" clip-rule="evenodd" d="M33.2675 5.26904C40.4039 8.2881 45.7057 14.7863 47.0359 22.6459L44.1171 24.9213C43.4614 16.7465 37.8696 9.97095 30.3171 7.56958L33.2675 5.26904ZM4.41927 27.7638C4.91731 35.9764 10.402 42.8402 17.8788 45.3803L14.96 47.6493C7.8866 44.5294 2.673 37.9555 1.46259 30.0644L4.41927 27.7638Z" fill="#DA0883"/>
<path fill-rule="evenodd" clip-rule="evenodd" d="M47.0359 22.646C47.2503 23.9129 47.3637 25.2112 47.3637 26.5348C47.3637 39.2792 37.0311 49.6158 24.2776 49.6158C20.9616 49.6158 17.8095 48.9162 14.96 47.6556L17.8788 45.3803C19.8899 46.061 22.0396 46.4329 24.2776 46.4329C35.2659 46.4329 44.1801 37.527 44.1801 26.5348C44.1801 25.9928 44.1549 25.4571 44.1171 24.9213L47.0359 22.646Z" fill="#FFDD00"/>
<path fill-rule="evenodd" clip-rule="evenodd" d="M24.2776 3.4541C27.4676 3.4541 30.5062 4.10329 33.2675 5.26932L30.3171 7.56985C28.4132 6.96478 26.3833 6.63703 24.2776 6.63703C13.2894 6.63703 4.37517 15.5429 4.37517 26.5351C4.37517 26.9448 4.38778 27.3544 4.41299 27.7641L1.46261 30.0647C1.28609 28.9112 1.19153 27.7326 1.19153 26.5351C1.19783 13.7844 11.5305 3.4541 24.2776 3.4541Z" fill="#00B1EB"/>
<path fill-rule="evenodd" clip-rule="evenodd" d="M21.5667 14.3516L10.0867 23.352C13.9134 23.352 17.7401 23.352 21.5667 23.352V42.5063L33.8096 32.9575V14.3516C28.7221 14.3516 26.6543 14.3516 21.5667 14.3516Z" fill="black"/>
<path d="M58.52 23C58.4027 23 58.3067 22.9627 58.232 22.888C58.1573 22.8133 58.12 22.7173 58.12 22.6V12.2C58.12 12.0827 58.1573 11.9867 58.232 11.912C58.3067 11.8373 58.4027 11.8 58.52 11.8H67.4C67.5173 11.8 67.6133 11.8373 67.688 11.912C67.7627 11.9867 67.8 12.0827 67.8 12.2V22.6C67.8 22.7067 67.7627 22.8027 67.688 22.888C67.6133 22.9627 67.5173 23 67.4 23H65.336C65.2187 23 65.1227 22.9627 65.048 22.888C64.9733 22.8027 64.936 22.7067 64.936 22.6V14.36H61V22.6C61 22.7067 60.9573 22.8027 60.872 22.888C60.7973 22.9627 60.7013 23 60.584 23H58.52ZM70.4419 23C70.3245 23 70.2285 22.9627 70.1539 22.888C70.0792 22.8027 70.0419 22.7067 70.0419 22.6V12.2C70.0419 12.0827 70.0792 11.9867 70.1539 11.912C70.2285 11.8373 70.3245 11.8 70.4419 11.8H77.9139C78.0312 11.8 78.1272 11.8373 78.2019 11.912C78.2765 11.9867 78.3139 12.0827 78.3139 12.2V13.704C78.3139 13.8213 78.2765 13.9173 78.2019 13.992C78.1272 14.0667 78.0312 14.104 77.9139 14.104H72.8099V16.264H77.5619C77.6792 16.264 77.7752 16.3067 77.8499 16.392C77.9245 16.4667 77.9619 16.5627 77.9619 16.68V18.072C77.9619 18.1787 77.9245 18.2747 77.8499 18.36C77.7752 18.4347 77.6792 18.472 77.5619 18.472H72.8099V20.696H78.0419C78.1592 20.696 78.2552 20.7333 78.3299 20.808C78.4045 20.8827 78.4419 20.9787 78.4419 21.096V22.6C78.4419 22.7067 78.4045 22.8027 78.3299 22.888C78.2552 22.9627 78.1592 23 78.0419 23H70.4419ZM80.6606 23C80.5433 23 80.4473 22.9627 80.3726 22.888C80.298 22.8027 80.2606 22.7067 80.2606 22.6V12.2C80.2606 12.0827 80.298 11.9867 80.3726 11.912C80.4473 11.8373 80.5433 11.8 80.6606 11.8H85.1406C86.026 11.8 86.794 11.9387 87.4446 12.216C88.106 12.4827 88.618 12.888 88.9806 13.432C89.354 13.976 89.5406 14.664 89.5406 15.496C89.5406 16.3173 89.354 16.9947 88.9806 17.528C88.618 18.0613 88.106 18.456 87.4446 18.712C86.794 18.968 86.026 19.096 85.1406 19.096H83.2366V22.6C83.2366 22.7067 83.194 22.8027 83.1086 22.888C83.034 22.9627 82.938 23 82.8206 23H80.6606ZM83.1886 16.888H85.0606C85.5193 16.888 85.882 16.7707 86.1486 16.536C86.426 16.3013 86.5646 15.944 86.5646 15.464C86.5646 15.0587 86.4473 14.7173 86.2126 14.44C85.978 14.1627 85.594 14.024 85.0606 14.024H83.1886V16.888ZM91.4731 23C91.3558 23 91.2598 22.9627 91.1851 22.888C91.1105 22.8027 91.0731 22.7067 91.0731 22.6V12.2C91.0731 12.0827 91.1105 11.9867 91.1851 11.912C91.2598 11.8373 91.3558 11.8 91.4731 11.8H96.3531C97.2705 11.8 98.0225 11.928 98.6091 12.184C99.1958 12.44 99.6278 12.808 99.9051 13.288C100.193 13.7573 100.337 14.3173 100.337 14.968C100.337 15.352 100.262 15.6933 100.113 15.992C99.9745 16.28 99.7985 16.52 99.5851 16.712C99.3825 16.904 99.1905 17.0427 99.0091 17.128C99.4145 17.32 99.7718 17.6347 100.081 18.072C100.401 18.5093 100.561 19.0213 100.561 19.608C100.561 20.312 100.401 20.92 100.081 21.432C99.7718 21.9333 99.3131 22.3227 98.7051 22.6C98.1078 22.8667 97.3718 23 96.4971 23H91.4731ZM93.9531 20.92H96.1771C96.6358 20.92 96.9825 20.7867 97.2171 20.52C97.4518 20.2533 97.5691 19.9493 97.5691 19.608C97.5691 19.2347 97.4465 18.92 97.2011 18.664C96.9665 18.408 96.6251 18.28 96.1771 18.28H93.9531V20.92ZM93.9531 16.248H96.0331C96.4705 16.248 96.7958 16.136 97.0091 15.912C97.2331 15.6773 97.3451 15.3893 97.3451 15.048C97.3451 14.7067 97.2331 14.4293 97.0091 14.216C96.7958 13.992 96.4705 13.88 96.0331 13.88H93.9531V16.248ZM102.739 23C102.621 23 102.525 22.9627 102.451 22.888C102.376 22.8027 102.339 22.7067 102.339 22.6V12.2C102.339 12.0827 102.376 11.9867 102.451 11.912C102.525 11.8373 102.621 11.8 102.739 11.8H104.803C104.92 11.8 105.016 11.8373 105.091 11.912C105.176 11.9867 105.219 12.0827 105.219 12.2V15.64H106.723C108.088 15.64 109.149 15.944 109.907 16.552C110.664 17.1493 111.043 18.056 111.043 19.272C111.043 20.008 110.877 20.6587 110.547 21.224C110.216 21.7893 109.725 22.2267 109.075 22.536C108.435 22.8453 107.651 23 106.723 23H102.739ZM105.219 20.776H106.659C107.117 20.776 107.464 20.6373 107.699 20.36C107.944 20.072 108.067 19.7093 108.067 19.272C108.067 18.792 107.939 18.4347 107.683 18.2C107.437 17.9653 107.096 17.848 106.659 17.848H105.219V20.776ZM112.659 23C112.541 23 112.445 22.9627 112.371 22.888C112.296 22.8027 112.259 22.7067 112.259 22.6V12.2C112.259 12.0827 112.296 11.9867 112.371 11.912C112.445 11.8373 112.541 11.8 112.659 11.8H114.803C114.92 11.8 115.016 11.8373 115.091 11.912C115.176 11.9867 115.219 12.0827 115.219 12.2V22.6C115.219 22.7067 115.176 22.8027 115.091 22.888C115.016 22.9627 114.92 23 114.803 23H112.659ZM117.848 23C117.731 23 117.635 22.9627 117.56 22.888C117.485 22.8027 117.448 22.7013 117.448 22.584V12.2C117.448 12.0827 117.485 11.9867 117.56 11.912C117.645 11.8373 117.741 11.8 117.848 11.8H119.912C120.029 11.8 120.125 11.8373 120.2 11.912C120.285 11.9867 120.328 12.0827 120.328 12.2V18.632L124.872 12.104C124.925 12.0187 124.995 11.9493 125.08 11.896C125.165 11.832 125.277 11.8 125.416 11.8H127.272C127.379 11.8 127.469 11.8373 127.544 11.912C127.629 11.9867 127.672 12.0827 127.672 12.2V22.6C127.672 22.7067 127.629 22.8027 127.544 22.888C127.469 22.9627 127.379 23 127.272 23H125.208C125.091 23 124.989 22.9627 124.904 22.888C124.829 22.8027 124.792 22.7067 124.792 22.6V16.392L120.248 22.696C120.205 22.76 120.141 22.8293 120.056 22.904C119.981 22.968 119.864 23 119.704 23H117.848ZM122.616 11.144C121.933 11.144 121.384 11.0427 120.968 10.84C120.552 10.6267 120.248 10.3493 120.056 10.008C119.875 9.656 119.784 9.272 119.784 8.856C119.784 8.77067 119.805 8.70133 119.848 8.648C119.901 8.584 119.981 8.552 120.088 8.552H121.368C121.464 8.552 121.539 8.584 121.592 8.648C121.645 8.70133 121.672 8.77067 121.672 8.856C121.672 8.99467 121.699 9.13333 121.752 9.272C121.805 9.4 121.896 9.50667 122.024 9.592C122.163 9.66667 122.36 9.704 122.616 9.704C122.872 9.704 123.069 9.66667 123.208 9.592C123.347 9.50667 123.443 9.4 123.496 9.272C123.549 9.13333 123.576 8.99467 123.576 8.856C123.576 8.77067 123.603 8.70133 123.656 8.648C123.709 8.584 123.784 8.552 123.88 8.552H125.16C125.256 8.552 125.331 8.584 125.384 8.648C125.437 8.70133 125.464 8.77067 125.464 8.856C125.464 9.272 125.368 9.656 125.176 10.008C124.984 10.3493 124.68 10.6267 124.264 10.84C123.848 11.0427 123.299 11.144 122.616 11.144ZM58.52 42C58.4027 42 58.3067 41.9627 58.232 41.888C58.1573 41.8133 58.12 41.7173 58.12 41.6V31.2C58.12 31.0827 58.1573 30.9867 58.232 30.912C58.3067 30.8373 58.4027 30.8 58.52 30.8H67.4C67.5173 30.8 67.6133 30.8373 67.688 30.912C67.7627 30.9867 67.8 31.0827 67.8 31.2V41.6C67.8 41.7067 67.7627 41.8027 67.688 41.888C67.6133 41.9627 67.5173 42 67.4 42H65.336C65.2187 42 65.1227 41.9627 65.048 41.888C64.9733 41.8027 64.936 41.7067 64.936 41.6V33.36H61V41.6C61 41.7067 60.9573 41.8027 60.872 41.888C60.7973 41.9627 60.7013 42 60.584 42H58.52ZM70.4419 42C70.3245 42 70.2285 41.9627 70.1539 41.888C70.0792 41.8027 70.0419 41.7067 70.0419 41.6V31.2C70.0419 31.0827 70.0792 30.9867 70.1539 30.912C70.2285 30.8373 70.3245 30.8 70.4419 30.8H77.9139C78.0312 30.8 78.1272 30.8373 78.2019 30.912C78.2765 30.9867 78.3139 31.0827 78.3139 31.2V32.704C78.3139 32.8213 78.2765 32.9173 78.2019 32.992C78.1272 33.0667 78.0312 33.104 77.9139 33.104H72.8099V35.264H77.5619C77.6792 35.264 77.7752 35.3067 77.8499 35.392C77.9245 35.4667 77.9619 35.5627 77.9619 35.68V37.072C77.9619 37.1787 77.9245 37.2747 77.8499 37.36C77.7752 37.4347 77.6792 37.472 77.5619 37.472H72.8099V39.696H78.0419C78.1592 39.696 78.2552 39.7333 78.3299 39.808C78.4045 39.8827 78.4419 39.9787 78.4419 40.096V41.6C78.4419 41.7067 78.4045 41.8027 78.3299 41.888C78.2552 41.9627 78.1592 42 78.0419 42H70.4419ZM86.6446 42C86.5273 42 86.4313 41.9627 86.3566 41.888C86.282 41.8027 86.2446 41.7067 86.2446 41.6V38.16C86.074 38.2987 85.8606 38.416 85.6046 38.512C85.3486 38.608 85.0713 38.6773 84.7726 38.72C84.4846 38.7627 84.1913 38.784 83.8926 38.784C82.538 38.784 81.53 38.4533 80.8686 37.792C80.2073 37.12 79.8766 36.096 79.8766 34.72V31.2C79.8766 31.0827 79.914 30.9867 79.9886 30.912C80.074 30.8373 80.17 30.8 80.2766 30.8H82.3566C82.474 30.8 82.57 30.8373 82.6446 30.912C82.7193 30.9867 82.7566 31.0827 82.7566 31.2V34.592C82.7566 35.1253 82.89 35.52 83.1566 35.776C83.4233 36.0213 83.866 36.144 84.4846 36.144C84.6553 36.144 84.842 36.128 85.0446 36.096C85.2473 36.064 85.4393 36.0107 85.6206 35.936C85.802 35.8613 85.9513 35.76 86.0686 35.632C86.186 35.504 86.2446 35.3493 86.2446 35.168V31.2C86.2446 31.0827 86.282 30.9867 86.3566 30.912C86.4313 30.8373 86.5273 30.8 86.6446 30.8H88.7086C88.826 30.8 88.922 30.8373 88.9966 30.912C89.082 30.9867 89.1246 31.0827 89.1246 31.2V41.6C89.1246 41.7067 89.082 41.8027 88.9966 41.888C88.922 41.9627 88.826 42 88.7086 42H86.6446ZM90.8081 42C90.7228 42 90.6428 41.968 90.5681 41.904C90.5041 41.8293 90.4721 41.7493 90.4721 41.664C90.4721 41.6107 90.4775 41.5627 90.4881 41.52L94.2481 31.248C94.2801 31.1307 94.3441 31.0293 94.4401 30.944C94.5468 30.848 94.6908 30.8 94.8721 30.8H97.2401C97.4215 30.8 97.5601 30.848 97.6561 30.944C97.7628 31.0293 97.8321 31.1307 97.8641 31.248L101.608 41.52C101.629 41.5627 101.64 41.6107 101.64 41.664C101.64 41.7493 101.603 41.8293 101.528 41.904C101.464 41.968 101.384 42 101.288 42H99.3201C99.1601 42 99.0375 41.9627 98.9521 41.888C98.8775 41.8027 98.8295 41.728 98.8081 41.664L98.1841 40.032H93.9121L93.3041 41.664C93.2828 41.728 93.2348 41.8027 93.1601 41.888C93.0855 41.9627 92.9575 42 92.7761 42H90.8081ZM94.5681 37.728H97.5441L96.0561 33.504L94.5681 37.728ZM105.765 42C105.648 42 105.552 41.9627 105.477 41.888C105.403 41.8027 105.365 41.7067 105.365 41.6V33.312H102.517C102.4 33.312 102.304 33.2747 102.229 33.2C102.155 33.1147 102.117 33.0187 102.117 32.912V31.2C102.117 31.0827 102.155 30.9867 102.229 30.912C102.304 30.8373 102.4 30.8 102.517 30.8H111.125C111.243 30.8 111.339 30.8373 111.413 30.912C111.488 30.9867 111.525 31.0827 111.525 31.2V32.912C111.525 33.0187 111.488 33.1147 111.413 33.2C111.339 33.2747 111.243 33.312 111.125 33.312H108.277V41.6C108.277 41.7067 108.24 41.8027 108.165 41.888C108.091 41.9627 107.995 42 107.877 42H105.765ZM113.379 42C113.262 42 113.166 41.9627 113.091 41.888C113.017 41.8133 112.979 41.7173 112.979 41.6V31.2C112.979 31.0827 113.017 30.9867 113.091 30.912C113.166 30.8373 113.262 30.8 113.379 30.8H115.443C115.561 30.8 115.657 30.8373 115.731 30.912C115.817 30.9867 115.859 31.0827 115.859 31.2V35.056H119.795V31.2C119.795 31.0827 119.833 30.9867 119.907 30.912C119.982 30.8373 120.078 30.8 120.195 30.8H122.259C122.377 30.8 122.473 30.8373 122.547 30.912C122.622 30.9867 122.659 31.0827 122.659 31.2V41.6C122.659 41.7067 122.622 41.8027 122.547 41.888C122.473 41.9627 122.377 42 122.259 42H120.195C120.078 42 119.982 41.9627 119.907 41.888C119.833 41.8027 119.795 41.7067 119.795 41.6V37.616H115.859V41.6C115.859 41.7067 115.817 41.8027 115.731 41.888C115.657 41.9627 115.561 42 115.443 42H113.379ZM125.301 42C125.184 42 125.088 41.9627 125.013 41.888C124.939 41.8027 124.901 41.7067 124.901 41.6V31.2C124.901 31.0827 124.939 30.9867 125.013 30.912C125.088 30.8373 125.184 30.8 125.301 30.8H127.365C127.483 30.8 127.579 30.8373 127.653 30.912C127.739 30.9867 127.781 31.0827 127.781 31.2V34.64H129.285C130.651 34.64 131.712 34.944 132.469 35.552C133.227 36.1493 133.605 37.056 133.605 38.272C133.605 39.008 133.44 39.6587 133.109 40.224C132.779 40.7893 132.288 41.2267 131.637 41.536C130.997 41.8453 130.213 42 129.285 42H125.301ZM127.781 39.776H129.221C129.68 39.776 130.027 39.6373 130.261 39.36C130.507 39.072 130.629 38.7093 130.629 38.272C130.629 37.792 130.501 37.4347 130.245 37.2C130 36.9653 129.659 36.848 129.221 36.848H127.781V39.776ZM135.221 42C135.104 42 135.008 41.9627 134.933 41.888C134.859 41.8027 134.821 41.7067 134.821 41.6V31.2C134.821 31.0827 134.859 30.9867 134.933 30.912C135.008 30.8373 135.104 30.8 135.221 30.8H137.365C137.483 30.8 137.579 30.8373 137.653 30.912C137.739 30.9867 137.781 31.0827 137.781 31.2V41.6C137.781 41.7067 137.739 41.8027 137.653 41.888C137.579 41.9627 137.483 42 137.365 42H135.221ZM140.411 42C140.293 42 140.197 41.9627 140.123 41.888C140.048 41.8027 140.011 41.7013 140.011 41.584V31.2C140.011 31.0827 140.048 30.9867 140.123 30.912C140.208 30.8373 140.304 30.8 140.411 30.8H142.475C142.592 30.8 142.688 30.8373 142.763 30.912C142.848 30.9867 142.891 31.0827 142.891 31.2V37.632L147.435 31.104C147.488 31.0187 147.557 30.9493 147.643 30.896C147.728 30.832 147.84 30.8 147.979 30.8H149.835C149.941 30.8 150.032 30.8373 150.107 30.912C150.192 30.9867 150.235 31.0827 150.235 31.2V41.6C150.235 41.7067 150.192 41.8027 150.107 41.888C150.032 41.9627 149.941 42 149.835 42H147.771C147.653 42 147.552 41.9627 147.467 41.888C147.392 41.8027 147.355 41.7067 147.355 41.6V35.392L142.811 41.696C142.768 41.76 142.704 41.8293 142.619 41.904C142.544 41.968 142.427 42 142.267 42H140.411ZM145.179 30.144C144.496 30.144 143.947 30.0427 143.531 29.84C143.115 29.6267 142.811 29.3493 142.619 29.008C142.437 28.656 142.347 28.272 142.347 27.856C142.347 27.7707 142.368 27.7013 142.411 27.648C142.464 27.584 142.544 27.552 142.651 27.552H143.931C144.027 27.552 144.101 27.584 144.155 27.648C144.208 27.7013 144.235 27.7707 144.235 27.856C144.235 27.9947 144.261 28.1333 144.315 28.272C144.368 28.4 144.459 28.5067 144.587 28.592C144.725 28.6667 144.923 28.704 145.179 28.704C145.435 28.704 145.632 28.6667 145.771 28.592C145.909 28.5067 146.005 28.4 146.059 28.272C146.112 28.1333 146.139 27.9947 146.139 27.856C146.139 27.7707 146.165 27.7013 146.219 27.648C146.272 27.584 146.347 27.552 146.443 27.552H147.723C147.819 27.552 147.893 27.584 147.947 27.648C148 27.7013 148.027 27.7707 148.027 27.856C148.027 28.272 147.931 28.656 147.739 29.008C147.547 29.3493 147.243 29.6267 146.827 29.84C146.411 30.0427 145.861 30.144 145.179 30.144Z" fill="black"/>
</svg>
